<svg width="738" height="738" viewBox="0 0 738 738" fill="none" xmlns="http://www.w3.org/2000/svg">
<g clip-path="url(#clip0_2512_76)">
<path d="M729.113 368.528C729.113 567.674 567.674 729.113 368.528 729.113C169.382 729.113 7.94241 567.674 7.94241 368.528C7.94241 169.382 169.382 7.94241 368.528 7.94241C567.674 7.94241 729.113 169.382 729.113 368.528Z" fill="#F5F5F5" stroke="#14151E" stroke-width="15.8848"/>
<path d="M544.673 289.227L541.071 297.036L549.141 300.007C593.989 316.515 613.668 343.77 613.668 368.528C613.668 393.287 593.989 420.542 549.141 437.05L541.075 440.019L544.671 447.826C564.647 491.193 559.284 524.369 541.782 541.876C524.282 559.381 491.123 564.746 447.758 544.745L439.952 541.145L436.979 549.211C420.463 594.02 393.213 613.686 368.456 613.686C343.699 613.686 316.449 594.02 299.933 549.211L296.962 541.149L289.158 544.743C245.792 564.719 212.616 559.356 195.108 541.854C177.603 524.354 172.238 491.195 192.239 447.83L195.84 440.024L187.774 437.051C142.964 420.535 123.299 393.285 123.299 368.528C123.299 343.771 142.964 316.522 187.774 300.006L195.836 297.034L192.241 289.231C172.266 245.864 177.629 212.688 195.131 195.181C212.63 177.675 245.789 172.31 289.155 192.312L296.961 195.912L299.933 187.846C316.449 143.036 343.699 123.371 368.456 123.371C393.213 123.371 420.463 143.036 436.979 187.846L439.95 195.908L447.754 192.313C491.121 172.338 524.296 177.701 541.804 195.203C559.309 212.702 564.674 245.861 544.673 289.227Z" fill="#F6E5CC" stroke="#14151E" stroke-width="15.8848"/>
</g>
<defs>
<clipPath id="clip0_2512_76">
<rect width="737.055" height="737.055" fill="white"/>
</clipPath>
</defs>
</svg>
