<svg width="738" height="738" viewBox="0 0 738 738" fill="none" xmlns="http://www.w3.org/2000/svg">
<g clip-path="url(#clip0_2512_90)">
<path d="M729.113 368.528C729.113 567.674 567.674 729.113 368.528 729.113C169.382 729.113 7.94241 567.674 7.94241 368.528C7.94241 169.382 169.382 7.94241 368.528 7.94241C567.674 7.94241 729.113 169.382 729.113 368.528Z" fill="#F5F5F5" stroke="#14151E" stroke-width="15.8848"/>
<path d="M362.778 142.445C363.306 135.326 373.75 135.326 374.278 142.445L383.49 266.614C384.54 280.765 402.563 286.062 411.102 274.73L486.053 175.269C490.349 169.568 499.132 175.22 495.723 181.493L436.3 290.841C429.522 303.314 441.824 317.525 455.14 312.604L571.922 269.443C578.619 266.967 582.954 276.471 576.694 279.906L467.604 339.758C455.154 346.589 457.828 365.204 471.698 368.254L593.238 394.985C600.211 396.518 598.726 406.859 591.603 406.368L467.425 397.817C453.26 396.842 445.455 413.948 455.476 424.007L543.295 512.162C548.334 517.22 541.499 525.118 535.77 520.858L435.843 446.549C424.455 438.08 408.652 448.246 411.637 462.121L437.819 583.816C439.32 590.795 429.3 593.741 426.786 587.06L382.918 470.51C377.92 457.231 359.136 457.231 354.138 470.51L310.27 587.06C307.755 593.741 297.736 590.795 299.237 583.816L325.419 462.121C328.404 448.246 312.601 438.08 301.212 446.549L201.285 520.858C195.557 525.118 188.721 517.22 193.76 512.162L281.579 424.007C291.6 413.948 283.796 396.842 269.63 397.817L145.452 406.368C138.329 406.859 136.844 396.518 143.818 394.985L265.358 368.254C279.228 365.204 281.902 346.589 269.451 339.758L160.361 279.906C154.102 276.472 158.436 266.967 165.133 269.443L281.916 312.604C295.231 317.525 307.534 303.314 300.755 290.841L241.332 181.493C237.923 175.22 246.707 169.568 251.003 175.27L325.953 274.73C334.493 286.062 352.516 280.765 353.566 266.614L362.778 142.445Z" fill="#C6BEF8" stroke="#14151E" stroke-width="9.60959"/>
</g>
<defs>
<clipPath id="clip0_2512_90">
<rect width="737.055" height="737.055" fill="white"/>
</clipPath>
</defs>
</svg>
