<svg width="738" height="738" viewBox="0 0 738 738" fill="none" xmlns="http://www.w3.org/2000/svg">
<g clip-path="url(#clip0_2512_80)">
<path d="M730.702 368.528C730.702 568.551 568.551 730.702 368.528 730.702C168.505 730.702 6.35393 568.551 6.35393 368.528C6.35393 168.505 168.505 6.35393 368.528 6.35393C568.551 6.35393 730.702 168.505 730.702 368.528Z" fill="#F5F5F5" stroke="#14151E" stroke-width="12.7079"/>
<path d="M581.853 366.891C582.627 367.035 583.007 367.355 583.229 367.645C583.491 367.987 583.677 368.493 583.677 369.085C583.677 369.676 583.491 370.182 583.229 370.524C583.007 370.814 582.627 371.134 581.853 371.278L496.648 387.086C485.796 389.1 482.555 403.077 491.413 409.661L561.406 461.686C562.04 462.158 562.24 462.614 562.311 462.971C562.395 463.395 562.339 463.932 562.076 464.464C561.813 464.996 561.422 465.368 561.034 465.559C560.707 465.72 560.224 465.839 559.464 465.622L476.844 442.078C466.15 439.031 457.015 450.28 462.192 460.121L503.065 537.809C503.435 538.512 503.417 539.01 503.326 539.363C503.217 539.781 502.932 540.241 502.462 540.607C501.993 540.974 501.477 541.138 501.045 541.141C500.681 541.143 500.193 541.039 499.602 540.509L435.435 482.98C427.094 475.502 413.868 481.766 414.368 492.957L418.276 580.265C418.311 581.063 418.081 581.506 417.848 581.785C417.572 582.117 417.116 582.412 416.532 582.542C415.948 582.672 415.41 582.598 415.018 582.415C414.689 582.261 414.293 581.957 413.987 581.22L380.759 501.159C376.445 490.765 361.722 490.765 357.408 501.159L324.181 581.22C323.875 581.957 323.478 582.261 323.149 582.415C322.757 582.598 322.22 582.672 321.636 582.542C321.052 582.412 320.596 582.117 320.319 581.785C320.086 581.506 319.856 581.063 319.892 580.265L323.799 492.957C324.3 481.766 311.073 475.502 302.732 482.98L238.566 540.509C237.974 541.039 237.487 541.143 237.123 541.141C236.691 541.138 236.175 540.974 235.705 540.607C235.235 540.241 234.95 539.781 234.842 539.363C234.751 539.01 234.733 538.512 235.102 537.809L275.975 460.121C281.153 450.28 272.018 439.031 261.324 442.078L178.703 465.622C177.943 465.839 177.46 465.72 177.133 465.559C176.746 465.368 176.354 464.996 176.092 464.464C175.829 463.932 175.772 463.395 175.856 462.971C175.927 462.614 176.127 462.158 176.761 461.686L246.755 409.661C255.612 403.077 252.371 389.1 241.52 387.086L156.314 371.278C155.541 371.134 155.16 370.814 154.939 370.524C154.676 370.182 154.491 369.676 154.491 369.085C154.491 368.493 154.676 367.987 154.939 367.645C155.16 367.355 155.541 367.035 156.314 366.891L241.52 351.083C252.371 349.069 255.612 335.092 246.755 328.508L176.761 276.483C176.127 276.011 175.927 275.555 175.856 275.198C175.772 274.774 175.829 274.237 176.092 273.705C176.354 273.173 176.746 272.801 177.133 272.61C177.46 272.449 177.943 272.33 178.703 272.547L261.324 296.091C272.017 299.138 281.153 287.889 275.975 278.048L235.102 200.36C234.733 199.657 234.751 199.159 234.842 198.806C234.95 198.388 235.235 197.928 235.705 197.562C236.175 197.195 236.691 197.031 237.123 197.028C237.487 197.026 237.974 197.13 238.566 197.66L302.732 255.189C311.073 262.667 324.3 256.403 323.799 245.212L319.892 157.904C319.856 157.106 320.086 156.663 320.319 156.384C320.596 156.052 321.052 155.757 321.636 155.627C322.22 155.497 322.757 155.571 323.149 155.754C323.478 155.908 323.875 156.212 324.181 156.949L357.408 237.01C361.722 247.404 376.445 247.404 380.759 237.01L413.987 156.949C414.293 156.212 414.689 155.908 415.018 155.754C415.41 155.571 415.948 155.497 416.532 155.627C417.116 155.757 417.572 156.052 417.848 156.384C418.081 156.663 418.311 157.106 418.276 157.904L414.368 245.212C413.868 256.403 427.094 262.667 435.435 255.189L499.602 197.66C500.193 197.13 500.681 197.026 501.045 197.028C501.477 197.031 501.993 197.195 502.462 197.562C502.932 197.928 503.217 198.388 503.326 198.806C503.417 199.159 503.435 199.657 503.065 200.36L462.192 278.048C457.015 287.889 466.15 299.138 476.844 296.091L559.464 272.547C560.224 272.33 560.707 272.449 561.034 272.61C561.422 272.801 561.813 273.173 562.076 273.705C562.339 274.237 562.395 274.774 562.311 275.198C562.24 275.555 562.041 276.011 561.406 276.483L491.413 328.508C482.555 335.092 485.796 349.069 496.648 351.083L581.853 366.891Z" fill="#ECC6CD" stroke="#14151E" stroke-width="10.4102"/>
</g>
<defs>
<clipPath id="clip0_2512_80">
<rect width="737.055" height="737.055" fill="white"/>
</clipPath>
</defs>
</svg>
