<svg width="738" height="738" viewBox="0 0 738 738" fill="none" xmlns="http://www.w3.org/2000/svg">
<g clip-path="url(#clip0_2512_95)">
<path d="M729.113 368.528C729.113 567.674 567.674 729.113 368.528 729.113C169.382 729.113 7.94241 567.674 7.94241 368.528C7.94241 169.382 169.382 7.94241 368.528 7.94241C567.674 7.94241 729.113 169.382 729.113 368.528Z" fill="#F5F5F5" stroke="#14151E" stroke-width="15.8848"/>
<path d="M589.444 431.821L590.284 428.403L414.636 382.794C412.108 382.137 412.556 378.422 415.167 378.386L596.628 375.847V372.328L415.167 369.789C412.556 369.753 412.108 366.038 414.635 365.382L590.284 319.772L589.444 316.354L412.536 357.391C409.994 357.98 408.668 354.485 410.961 353.24L570.582 266.62L568.944 263.505L407.188 345.829C404.861 347.013 402.733 343.935 404.663 342.177L538.817 219.93L536.482 217.297L399.069 335.796C397.091 337.501 394.29 335.019 395.746 332.851L496.902 182.214L494.007 180.212L388.76 328.147C387.247 330.273 383.937 328.533 384.831 326.081L447.018 155.502L443.727 154.254L377.11 323.189C376.153 325.617 372.522 324.724 372.799 322.13L392.092 141.562L388.597 141.141L364.435 320.918C364.087 323.507 360.343 323.507 359.995 320.918L335.833 141.141L332.338 141.562L351.631 322.13C351.908 324.724 348.277 325.617 347.32 323.189L280.703 154.254L277.412 155.502L339.599 326.081C340.493 328.533 337.183 330.273 335.67 328.147L230.423 180.212L227.527 182.214L328.684 332.851C330.14 335.019 327.339 337.501 325.361 335.796L187.948 217.297L185.613 219.93L319.767 342.177C321.697 343.935 319.569 347.013 317.242 345.829L155.486 263.505L153.848 266.62L313.469 353.24C315.762 354.485 314.436 357.98 311.894 357.391L134.986 316.354L134.146 319.772L309.794 365.382C312.322 366.038 311.874 369.753 309.263 369.789L127.802 372.328L127.802 375.847L309.263 378.386C311.874 378.422 312.322 382.137 309.794 382.794L134.146 428.403L134.986 431.821L311.894 390.784C314.436 390.195 315.762 393.691 313.469 394.935L153.848 481.555L155.486 484.67L317.242 402.346C319.569 401.162 321.697 404.24 319.767 405.998L185.613 528.245L187.948 530.879L325.361 412.379C327.339 410.674 330.14 413.156 328.684 415.324L227.527 565.961L230.423 567.963L335.668 420.03C337.181 417.904 340.492 419.644 339.598 422.096L277.412 592.661L280.703 593.91L347.32 424.984C348.277 422.556 351.908 423.449 351.631 426.043L332.338 606.613L335.833 607.035L359.995 427.257C360.343 424.669 364.087 424.668 364.435 427.257L388.597 607.035L392.092 606.613L372.799 426.046C372.522 423.451 376.153 422.558 377.11 424.986L443.727 593.922L447.018 592.673L384.831 422.094C383.937 419.642 387.247 417.902 388.76 420.029L494.007 567.963L496.902 565.961L395.746 415.324C394.29 413.156 397.091 410.674 399.069 412.379L536.482 530.879L538.817 528.245L404.663 405.998C402.733 404.24 404.861 401.162 407.188 402.346L568.944 484.67L570.582 481.555L410.961 394.935C408.668 393.691 409.994 390.195 412.536 390.784L589.444 431.821Z" fill="#C1D2D8" stroke="#14151E" stroke-width="3.52"/>
</g>
<defs>
<clipPath id="clip0_2512_95">
<rect width="737.055" height="737.055" fill="white"/>
</clipPath>
</defs>
</svg>
