<svg width="691" height="691" viewBox="0 0 691 691" fill="none" xmlns="http://www.w3.org/2000/svg">
<g clip-path="url(#clip0_2512_72)">
<path d="M684.507 345.495C684.507 532.726 532.726 684.507 345.495 684.507C158.263 684.507 6.48208 532.726 6.48208 345.495C6.48208 158.263 158.263 6.48208 345.495 6.48208C532.726 6.48208 684.507 158.263 684.507 345.495Z" fill="#F5F5F5" stroke="#14151E" stroke-width="12.9642"/>
<path d="M561.574 291.432L561.556 291.859L561.592 292.268L561.593 292.273L561.593 292.277C561.594 292.293 561.597 292.325 561.6 292.375C561.607 292.475 561.618 292.644 561.63 292.88C561.654 293.352 561.682 294.092 561.691 295.084C561.71 297.068 561.654 300.059 561.34 303.927C560.713 311.663 559.058 322.908 554.915 336.636C546.642 364.052 528.4 401.549 488.317 440.901L488.294 440.923L488.272 440.945C452.062 477.193 411.592 511.77 345.545 565.517C279.499 511.795 239.03 477.218 202.822 440.947L202.798 440.923L202.774 440.899C162.659 401.547 144.401 364.049 136.12 336.635C131.974 322.907 130.316 311.662 129.688 303.926C129.374 300.058 129.318 297.068 129.336 295.084C129.345 294.092 129.373 293.352 129.397 292.88C129.409 292.644 129.42 292.475 129.427 292.375C129.431 292.325 129.433 292.293 129.434 292.277L129.435 292.273L129.435 292.268L129.482 291.75L129.441 291.214C129.346 289.971 129.343 288.689 129.343 287.104C129.343 228.766 178.662 178.024 239.473 178.024C283.74 178.024 322.191 206.594 339.669 243.261L345.52 255.537L351.372 243.261C368.85 206.593 407.288 178.024 451.554 178.024C512.366 178.024 561.684 228.766 561.684 287.104C561.684 288.51 561.637 289.932 561.574 291.432Z" fill="#C1D2D8" stroke="#14151E" stroke-width="12.9642"/>
</g>
<defs>
<clipPath id="clip0_2512_72">
<rect width="690.99" height="690.99" fill="white"/>
</clipPath>
</defs>
</svg>
