<svg width="691" height="691" viewBox="0 0 691 691" fill="none" xmlns="http://www.w3.org/2000/svg">
<g clip-path="url(#clip0_2512_68)">
<path d="M682.48 345.495C682.48 531.606 531.606 682.48 345.495 682.48C159.383 682.48 8.50972 531.606 8.50972 345.495C8.50972 159.383 159.383 8.50972 345.495 8.50972C531.606 8.50972 682.48 159.383 682.48 345.495Z" fill="#F5F5F5" stroke="#14151E" stroke-width="17.0194"/>
<path d="M490.682 293.353C501.316 282.719 501.316 265.477 490.682 254.843L364.749 128.91C354.115 118.275 336.873 118.275 326.238 128.91L332.122 134.793L326.238 128.91L200.305 254.843C189.671 265.477 189.671 282.719 200.305 293.353L252.446 345.495L200.305 397.636C189.671 408.27 189.671 425.512 200.305 436.147L326.238 562.08C336.873 572.714 354.115 572.714 364.749 562.08L490.682 436.147C501.316 425.512 501.316 408.27 490.682 397.636L438.541 345.495L490.682 293.353Z" fill="#C6BEF8" stroke="#14151E" stroke-width="17.0194"/>
</g>
<defs>
<clipPath id="clip0_2512_68">
<rect width="690.99" height="690.99" fill="white"/>
</clipPath>
</defs>
</svg>
