<svg xmlns="http://www.w3.org/2000/svg" width="400" height="300" fill="none" viewBox="0 0 400 300">
  <g >
    <path fill="#F6D4A0" d="M393.73 290.415H92.38S80.72 265.63 102.8 246.31c22.08-19.32 59.425 28.12 78.75 35 19.325 6.88-18.09-86.5 26.54-104 44.63-17.5 81.205-.575 105.585 52.335 24.38 52.91 31.75 53.855 50.15 36.855s29.905 23.915 29.905 23.915Z" class="shade10"/>
    <path fill="#14151f" d="M172.77 232.815c-6.75 0-24.75-15.055-25.57-15.745l.32-.385c.055.045 5.47 4.585 11.43 8.73 9.875 6.865 13.595 7.405 15 6.655 2.5-1.36 1.89-5.92 1.06-12.23-.765-5.775-1.71-12.97-.5-20.255l.5.08c-1.2 7.215-.26 14.365.5 20.11.86 6.5 1.5 11.21-1.315 12.735a2.884 2.884 0 0 1-1.425.305Z" class="shade90"/>
    <path fill="#F6D4A0" d="M395.1 284.11a49.71 49.71 0 0 0-6.705-15.29c-3.92-5.635-7.35-10.175-12.74-13-3.645-1.82-8.26-1.175-10.97 1.535-1 1-1.89 2.065-2.76 3.105-2.175 2.6-4.225 5.05-7.47 6.185-4.82 1.78-9.745 1.36-13.5-1.15a22.795 22.795 0 0 1-4.79-4.565 118.45 118.45 0 0 0-1.575-2.14c-.505-.675-1-1.355-1.58-2.145-4.3-6.445-7.415-12.5-10.71-18.945-.85-1.65-1.705-3.32-2.59-5l.445-.23c.885 1.69 1.74 3.36 2.59 5 3.29 6.41 6.395 12.47 10.675 18.885.555.78 1.065 1.455 1.57 2.13.505.675 1 1.355 1.58 2.145a22.176 22.176 0 0 0 4.675 4.45c3.62 2.41 8.38 2.815 13.055 1.09 3.115-1.09 5.125-3.5 7.255-6.035.88-1.05 1.79-2.14 2.79-3.14 2.905-2.905 7.655-3.57 11.55-1.625 5.5 2.86 8.97 7.445 12.93 13.145a50.971 50.971 0 0 1 6.76 15.485l-.485.11Z" class="shade10"/>
    <path fill="#14151f" d="M315.33 224.28c-1.09-1.925-2.11-3.87-3.095-5.745-1.575-3-3.21-6.13-5.15-9.18a4.161 4.161 0 0 1-.5-1.07 3.823 3.823 0 0 0-.42-.955 90.781 90.781 0 0 1-2.335-3.72 57.542 57.542 0 0 0-3.96-5.95l-.03-.04a14.448 14.448 0 0 0-.775-1.33c-.28-.45-.57-.915-.8-1.375-11.74-17.845-27.37-29.33-46.44-34.1a1.353 1.353 0 0 1-.55-.265 1.595 1.595 0 0 0-.32-.185c-12.5-2.86-22.805-3.39-32.5-1.67l-.085-.5c9.775-1.695 20.13-1.195 32.63 1.67.204.044.395.136.555.27.1.071.207.131.32.18h.055c19.205 4.8 34.94 16.355 46.775 34.34.235.465.5.92.79 1.36.29.44.56.895.79 1.345a57.595 57.595 0 0 1 3.975 6c.73 1.2 1.5 2.44 2.325 3.705.217.331.385.691.5 1.07.095.336.236.658.42.955 1.96 3.075 3.595 6.2 5.18 9.225 1 1.87 2 3.81 3.085 5.725l-.44.24Z" class="shade90"/>
    <path fill="#F6D4A0" d="M69.735 291.34h-25.67S6.43 262.405 5.78 248.92c-.65-13.485 36.765-15.42 63.955 42.42Z" class="shade10"/>
    <path fill="#14151f" d="M392.325 292.725H29.765a.25.25 0 0 1-.177-.427.25.25 0 0 1 .177-.073h362.56a.252.252 0 0 1 .25.25.252.252 0 0 1-.25.25Z" class="shade90"/>
    <path fill="#14151f" d="m387.567 165.436-65.838-10.016-7.471 49.115 65.837 10.016 7.472-49.115Z" class="shade90" opacity=".24"/>
    <path fill="#14151f" d="m387.57 165.431-65.837-10.016-1.991 13.084 65.838 10.016 1.99-13.084Z" class="shade90" opacity=".56"/>
    <path fill="#14151f" d="m380.295 214.85-66.33-10.095 7.535-49.605 66.33 10.095-7.535 49.605Zm-65.76-10.5 65.34 9.945 7.4-48.62-65.345-9.96-7.395 48.635Z" class="shade90"/>
    <path fill="#fff" d="m379.77 170.73-1.3-2.04 1.185-.755 1.305 2.04 2.055-1.315.755 1.185-2.05 1.315 1.3 2.04-1.185.76-1.305-2.04-2.085 1.33-.76-1.185 2.085-1.335Z" class="shade0"/>
    <path fill="#fff" d="M333.17 198.245c.344-1.039.593-2.107.745-3.19.8-5.59-1-10.47-4-10.9-3-.43-6.08 3.755-6.88 9.345-.16 1.08-.22 2.173-.18 3.265l10.315 1.48Zm-2.701-15.405a2.405 2.405 0 1 0 0-4.81 2.405 2.405 0 0 0 0 4.81Zm24.361 18.525c.344-1.037.594-2.103.745-3.185.805-5.59-1-10.47-4-10.9-3-.43-6.08 3.75-6.88 9.345a18.193 18.193 0 0 0-.18 3.265l10.315 1.475Zm-2.7-15.4a2.405 2.405 0 1 0 0-4.81 2.405 2.405 0 0 0 0 4.81ZM376.5 204.5c.34-1.038.588-2.104.74-3.185.805-5.59-1-10.475-4-10.905-3-.43-6.085 3.755-6.885 9.35a18.286 18.286 0 0 0-.18 3.265L376.5 204.5Zm-2.71-15.415a2.405 2.405 0 1 0 0-4.81 2.405 2.405 0 0 0 0 4.81Z" class="shade0" opacity=".71"/>
    <path fill="#14151f" d="M380.085 214.815h-.035l-65.84-10a.239.239 0 0 1-.092-.034.242.242 0 0 1-.073-.066.259.259 0 0 1-.048-.102.269.269 0 0 1 .003-.113l7.5-49.115a.26.26 0 0 1 .1-.165.239.239 0 0 1 .185-.045l65.84 10a.256.256 0 0 1 .21.285l-7.5 49.115a.254.254 0 0 1-.25.24Zm-65.55-10.5 65.34 9.945 7.4-48.62-65.345-9.925-7.395 48.6Z" class="shade90"/>
    <path fill="#cadce1" d="M262.44 32.252 120.211 10.615 104.07 116.714l142.229 21.637 16.141-106.1Z" class="shade50" opacity=".31"/>
    <path fill="#cadce1" d="M254.86 77.065 239.33 96.3l-15.14-38.38-46.34 67.655-4.785-23.06-21.1 17.04L138.26 85.33l-30.455 23.71-1.74 6.965L244.2 137.32l10.66-60.255Z" class="shade50" opacity=".17"/>
    <path fill="#14151f" d="m246.5 138.645-142.725-21.72L120 10.335l142.72 21.72-16.22 106.59ZM104.345 116.5l141.735 21.57L262.15 32.5 120.415 10.905 104.345 116.5Z" class="shade90"/>
    <path fill="#14151f" d="M154.64 67.9c.406-1.198.706-2.43.895-3.68 1-6.46-1.03-12.125-4.5-12.65-3.47-.525-7.07 4.28-8.035 10.74a21.444 21.444 0 0 0-.245 3.78l11.885 1.81Zm-2.945-17.85a2.78 2.78 0 1 0 0-5.56 2.78 2.78 0 0 0 0 5.56Zm-18.635 7.565-1.28-.195.115-.74 1.275.195.2-1.29.74.115-.195 1.285 1.28.195-.115.745-1.28-.195-.195 1.305-.745-.115.2-1.305ZM254.645 38l-1.28-2 1.165-.745 1.285 2 2-1.29.75 1.17-2 1.29 1.285 2-1.17.75-1.28-2-2.055 1.315-.745-1.17 2.045-1.32Zm-65.76 35.11c.406-1.196.705-2.426.895-3.675 1-6.465-1.03-12.13-4.5-12.655-3.47-.525-7.075 4.28-8.055 10.745a21.388 21.388 0 0 0-.245 3.775l11.905 1.81Zm-2.945-17.85a2.78 2.78 0 1 0 0-5.559 2.78 2.78 0 0 0 0 5.56Zm-18.635 7.57-1.275-.195.11-.745 1.28.195.195-1.285.74.11-.195 1.285 1.28.195-.115.745-1.275-.195-.2 1.305-.745-.11.2-1.305Z" class="shade90"/>
    <path fill="#fff" d="m178.155 119.075-5.25-28.885-21.48 21.265L138.14 72.91l-38.55 30.68-.315-.39 39.105-31.12 13.255 38.46 21.59-21.37 5.19 28.545 45.825-73.18 15.195 38.51 26.445-22.99.325.375-26.975 23.455-15.095-38.245-45.98 73.435Z" class="shade0"/>
    <path fill="#14151f" d="M239.5 290.72h-.065a.257.257 0 0 1-.152-.116.26.26 0 0 1-.028-.189l.595-2.38a.224.224 0 0 1 .04-.089.235.235 0 0 1 .163-.098.228.228 0 0 1 .097.007c.064.015.12.055.154.112a.248.248 0 0 1 .031.188l-.595 2.38a.247.247 0 0 1-.089.133.255.255 0 0 1-.151.052Zm-2-.72h-.055a.257.257 0 0 1-.195-.295l.345-1.66a.255.255 0 0 1 .106-.161.255.255 0 0 1 .279.004.245.245 0 0 1 .105.257l-.345 1.66a.242.242 0 0 1-.24.195Z" class="shade90"/>
    <path fill="#fff" d="m264.22 253.905-3.97 25.75 12.88 2.11 5.48-30.455-14.39 2.595Z" class="shade0"/>
    <path fill="#14151f" d="M273.13 282h-.04l-12.88-2.11a.245.245 0 0 1-.205-.28l3.97-25.75a.245.245 0 0 1 .2-.21l14.39-2.595a.262.262 0 0 1 .22.07.237.237 0 0 1 .07.22l-5.5 30.455a.25.25 0 0 1-.225.2Zm-12.595-2.565 12.39 2.065 5.375-29.86-13.86 2.5-3.905 25.295Z" class="shade90"/>
    <path fill="#14151f" d="M262.265 267.435c1.235.07 2.47.145 3.705.235 2.265.16 4.5.38 6.78.675.91.115 1.82.24 2.73.36l-2.35 13.06-12.88-2.11 1.885-12.225.13.005Z" class="shade90"/>
    <path fill="#14151f" d="M273.13 282h-.04l-12.88-2.11a.248.248 0 0 1-.163-.099.247.247 0 0 1-.042-.186l1.885-12.225a.24.24 0 0 1 .26-.21h.13c1.235.07 2.47.145 3.705.235 2.43.175 4.65.395 6.795.675l2.73.36a.249.249 0 0 1 .215.295l-2.35 13.06a.248.248 0 0 1-.245.205Zm-12.595-2.565 12.39 2.065 2.26-12.56-2.47-.33c-2.135-.28-4.345-.5-6.765-.67-1.2-.09-2.4-.16-3.6-.23l-1.815 11.725Z" class="shade90"/>
    <path fill="#fff" d="m239.245 290.575 34.925-.365s1.53-.55 1.955-3.32c.425-2.77-2.3-10.555-2.3-10.555s-5.6.07-6.83-.42c-1.23-.49-5.81-2.07-5.81-2.07l-.72.275c-9.695 3.645-11.72 6.5-17.33 8.25a294.235 294.235 0 0 1-5.905 1.765s-1.885 6.48 2.015 6.44Z" class="shade0"/>
    <path fill="#14151f" d="M239.205 290.825a2.362 2.362 0 0 1-2-.91c-1.375-1.805-.265-5.685-.22-5.85a.262.262 0 0 1 .175-.17s2.26-.64 5.9-1.765c2.595-.8 4.46-1.875 6.62-3.12a65.515 65.515 0 0 1 10.69-5.125l.72-.27a.248.248 0 0 1 .17 0c.185.065 4.6 1.58 5.82 2.07 1 .39 5.195.425 6.74.405a.25.25 0 0 1 .145.044c.042.03.073.072.09.121.115.32 2.74 7.875 2.315 10.68-.445 2.885-2.05 3.5-2.12 3.5a.215.215 0 0 1-.08 0l-34.925.365-.04.025Zm.04-.5c3.805-.045 33.5-.35 34.875-.365.22-.1 1.395-.735 1.76-3.11.375-2.455-1.84-9.115-2.23-10.265-1 0-5.6 0-6.75-.44-1.15-.44-5.08-1.815-5.71-2.03l-.64.24a64.206 64.206 0 0 0-10.615 5.09 30.947 30.947 0 0 1-6.725 3.165 280.669 280.669 0 0 1-5.775 1.725c-.18.685-.92 3.845.175 5.28a1.932 1.932 0 0 0 1.635.71Z" class="shade90"/>
    <path fill="#cadce1" d="M251.53 289.67c4.28-.195 8.555-.45 12.84-.595a92.122 92.122 0 0 0 11.445-.935c-.6 1.69-1.645 2.07-1.645 2.07l-34.925.365a2.305 2.305 0 0 1-1.45-.425c4.58-.15 9.16-.27 13.735-.48Z" class="shade50"/>
    <path fill="#14151f" d="M236.96 289.08a.254.254 0 0 1-.25-.245.26.26 0 0 1 .245-.255l38.97-1.045a.25.25 0 0 1 .25.245.259.259 0 0 1-.245.255l-38.97 1.045Z" class="shade90"/>
    <path fill="#14151f" d="M273.27 290.47h-.06a.238.238 0 0 1-.153-.112.245.245 0 0 1-.027-.188l.595-2.38a.247.247 0 0 1 .111-.155.24.24 0 0 1 .189-.025c.065.016.12.056.155.112a.253.253 0 0 1 .03.188l-.61 2.37a.246.246 0 0 1-.23.19Zm-2.27.03h-.06a.254.254 0 0 1-.185-.305l.595-2.38a.233.233 0 0 1 .041-.089.231.231 0 0 1 .073-.066.25.25 0 0 1 .191-.025.25.25 0 0 1 .18.3l-.595 2.38a.25.25 0 0 1-.088.134.24.24 0 0 1-.152.051Zm-2.235 0h-.06a.251.251 0 0 1-.154-.115.272.272 0 0 1-.032-.092.232.232 0 0 1 .006-.098l.59-2.375a.252.252 0 0 1 .305-.185.265.265 0 0 1 .088.042c.026.02.048.045.065.073a.24.24 0 0 1 .032.093.245.245 0 0 1-.005.097l-.6 2.375a.255.255 0 0 1-.235.185Zm-6.765.055h-.06a.25.25 0 0 1-.18-.3l.595-2.38a.244.244 0 0 1 .112-.154.248.248 0 0 1 .188-.031.256.256 0 0 1 .185.305l-.595 2.38a.257.257 0 0 1-.092.132.255.255 0 0 1-.153.048Zm-2.245.015h-.06a.25.25 0 0 1-.185-.3l.595-2.38a.257.257 0 0 1 .5.12l-.605 2.37a.246.246 0 0 1-.088.139.252.252 0 0 1-.157.051Zm-2.255.015h-.06a.251.251 0 0 1-.18-.305l.59-2.38a.257.257 0 0 1 .116-.152.26.26 0 0 1 .189-.028.251.251 0 0 1 .18.305l-.59 2.375a.246.246 0 0 1-.091.134.244.244 0 0 1-.154.051Zm-2.25.02h-.06a.254.254 0 0 1-.185-.3l.595-2.38a.244.244 0 0 1 .112-.154.248.248 0 0 1 .344.083c.017.028.029.06.034.092a.254.254 0 0 1-.005.099l-.585 2.37a.242.242 0 0 1-.091.14.242.242 0 0 1-.159.05Zm-2.25.015h-.06a.251.251 0 0 1-.18-.305l.59-2.38a.251.251 0 0 1 .305-.18.23.23 0 0 1 .089.04.235.235 0 0 1 .098.163.243.243 0 0 1-.007.097l-.59 2.38a.246.246 0 0 1-.245.185Zm-2.255.015h-.065a.256.256 0 0 1-.18-.305l.595-2.38a.245.245 0 0 1 .3-.18c.065.017.12.058.155.115a.258.258 0 0 1 .03.19l-.58 2.37a.249.249 0 0 1-.255.19Zm-2.245.02h-.06a.254.254 0 0 1-.185-.3l.595-2.38a.252.252 0 0 1 .115-.159.25.25 0 0 1 .195-.031.269.269 0 0 1 .091.042.267.267 0 0 1 .103.168.26.26 0 0 1-.004.1l-.595 2.38a.248.248 0 0 1-.095.136.248.248 0 0 1-.16.044Zm-2.265.015h-.06a.247.247 0 0 1-.185-.207.249.249 0 0 1 .005-.098l.59-2.38a.26.26 0 0 1 .31-.19.26.26 0 0 1 .16.116.259.259 0 0 1 .03.194l-.585 2.395a.249.249 0 0 1-.265.17Zm-2.235.015h-.06a.253.253 0 0 1-.185-.305l.595-2.38a.261.261 0 0 1 .117-.159.257.257 0 0 1 .383.284l-.625 2.375a.246.246 0 0 1-.225.185Zm-2.27.02h-.06a.225.225 0 0 1-.087-.041.235.235 0 0 1-.098-.162.245.245 0 0 1 .005-.097l.59-2.38a.26.26 0 0 1 .115-.155.258.258 0 0 1 .19-.03.256.256 0 0 1 .154.115.245.245 0 0 1 .026.19L242 290.5a.25.25 0 0 1-.27.205Zm12.535-9.385h-.04c-.075 0-7.5-1.19-9.945-.88a.26.26 0 0 1-.28-.22.26.26 0 0 1 .22-.28c2-.245 6.855.405 9.025.725l-4.025-2.805a.25.25 0 0 1 .21-.45l6.68 1.89-2.425-3.115a.256.256 0 0 1 0-.305.259.259 0 0 1 .295-.085l6.16 2.45-2-3.825a.248.248 0 0 1 .118-.311.25.25 0 0 1 .322.081l2.33 4.42a.253.253 0 0 1 .028.148.259.259 0 0 1-.192.215.252.252 0 0 1-.151-.013l-5.93-2.36 2.33 3a.253.253 0 0 1 0 .295.25.25 0 0 1-.275.1l-6-1.69 3.685 2.57a.252.252 0 0 1 .004.407.252.252 0 0 1-.149.048l.005-.01Z" class="shade90"/>
    <path fill="#cadce1" d="m275.78 132.975-13.775 125.81 21.48 2.35 19.03-127.205-26.735-.955Z" class="shade50"/>
    <path fill="#14151f" d="M283.7 261.41 261.73 259l.03-.25 13.795-126.04 27.25.975-.04.28L283.7 261.41Zm-21.415-2.85 21 2.3 18.955-126.69-26.24-.935-13.715 125.325Z" class="shade90"/>
    <path fill="#fff" d="m308.045 255.105-1.105 26.03 13.03.675 2.085-30.87-14.01 4.165Z" class="shade0"/>
    <path fill="#14151f" d="m319.97 282.06-13.035-.675a.256.256 0 0 1-.235-.26l1.105-26.03a.254.254 0 0 1 .051-.143.254.254 0 0 1 .124-.087l14-4.165a.227.227 0 0 1 .225.045.257.257 0 0 1 .074.093.237.237 0 0 1 .021.117l-2.085 30.875a.246.246 0 0 1-.245.23Zm-12.77-1.16 12.54.65 2.045-30.27-13.5 4-1.085 25.62Z" class="shade90"/>
    <path fill="#14151f" d="M307.59 268.765c1.235-.065 2.5-.125 3.71-.175 2.27-.09 4.542-.117 6.815-.08l2.75.06-.895 13.24-13.03-.675.5-12.36.15-.01Z" class="shade90"/>
    <path fill="#14151f" d="m319.97 282.06-13.035-.675a.256.256 0 0 1-.235-.26l.5-12.36a.243.243 0 0 1 .235-.24h.125c1.24-.065 2.5-.125 3.715-.175 2.42-.095 4.655-.12 6.83-.08l2.75.06a.229.229 0 0 1 .18.08.256.256 0 0 1 .065.185l-.895 13.245a.247.247 0 0 1-.235.22Zm-12.77-1.16 12.54.65.86-12.735-2.5-.055c-2.165-.04-4.39 0-6.8.08-1.205.045-2.405.105-3.605.17l-.495 11.89Z" class="shade90"/>
    <path fill="#cadce1" d="m297.43 147.185 6.925 113.595 21.565-1.315-3.71-95.19-3.955-33.74" class="shade50"/>
    <path fill="#14151f" d="m304.12 261.045-.015-.25L297.18 147.2l.5-.03 6.905 113.345 21.075-1.285-3.7-94.945-3.95-33.72.495-.06 3.955 33.74 3.72 95.455-22.06 1.345Z" class="shade90"/>
    <path fill="#cadce1" d="m299.89 148.705-3.915-2.61-19.215-10.805 41.04-6.305.435 5.655-18.055 13.92" class="shade50"/>
    <path fill="#fff" d="M225 66.935c1.025.6 7.085 3.42 7.085 3.42l9.47 7.145c-1.87 2.15-3.285 4.695-5.5 6.59l-1.375-2.195a40.822 40.822 0 0 0-7.195-3c-4.355-1.385-7.215-6.205-7.5-11.33-.285-5.125 2.015-2.39 5.015-.63Z" class="shade0"/>
    <path fill="#14151f" d="M236.06 84.34h-.035a.26.26 0 0 1-.175-.115l-1.35-2.14a41.456 41.456 0 0 0-7.095-2.955c-4.28-1.355-7.37-6-7.685-11.55-.1-1.815.11-2.77.685-3.1.725-.41 1.77.295 3.09 1.185.5.355 1.055.72 1.625 1.055 1 .585 7 3.38 7.065 3.41a.093.093 0 0 1 .045.025l9.465 7.145a.252.252 0 0 1 .04.365c-.69.79-1.33 1.65-1.945 2.5a24.25 24.25 0 0 1-3.575 4.135.25.25 0 0 1-.155.04Zm-15.16-19.5a.44.44 0 0 0-.235.055c-.26.145-.54.72-.435 2.635.3 5.265 3.315 9.83 7.335 11.105a41.826 41.826 0 0 1 7.245 3.025c.036.022.067.05.09.085l1.22 1.945a25.548 25.548 0 0 0 3.28-3.86c.57-.77 1.16-1.565 1.79-2.31l-9.23-6.97c-.475-.22-6.08-2.835-7.085-3.42-.58-.34-1.125-.71-1.655-1.07-.92-.605-1.8-1.2-2.32-1.2v-.02Z" class="shade90"/>
    <path fill="#fff" d="M233.565 71.455s-3.745-6.62-4.185-9c-.44-2.38-1.925-.715-2.175 1.535a23.614 23.614 0 0 0 .03 4.635" class="shade0"/>
    <path fill="#14151f" d="M233.565 71.705a.253.253 0 0 1-.215-.125c-.155-.27-3.775-6.685-4.215-9.055-.135-.7-.35-.945-.5-.945-.365 0-1 1-1.18 2.46a23.89 23.89 0 0 0 0 4.585.248.248 0 0 1-.129.248.248.248 0 0 1-.278-.024.25.25 0 0 1-.093-.169 23.76 23.76 0 0 1-.03-4.695c.175-1.575.92-2.88 1.66-2.905.35 0 .795.21 1 1.355.43 2.29 4.12 8.83 4.16 8.9a.254.254 0 0 1-.18.37Z" class="shade90"/>
    <path fill="#fff" d="m236.45 97.29-4.23-1.07s.185-4.25 1.78-5.695c2-1.825 1.85-2.69 4.59-6.195 2.74-3.505 2.35-4.17 2.35-4.17" class="shade0"/>
    <path fill="#14151f" d="M236.45 97.54h-.06l-4.235-1.065a.253.253 0 0 1-.138-.095.254.254 0 0 1-.047-.16c0-.18.21-4.375 1.86-5.87a10.56 10.56 0 0 0 2.17-2.715 34.227 34.227 0 0 1 2.395-3.45c2.455-3.135 2.32-3.895 2.315-3.925a.235.235 0 0 1-.024-.184.23.23 0 0 1 .119-.142.272.272 0 0 1 .35.106c.145.245.205 1.165-2.365 4.45a32.984 32.984 0 0 0-2.365 3.41 11.14 11.14 0 0 1-2.255 2.82c-1.31 1.185-1.63 4.47-1.69 5.32l4.03 1a.252.252 0 0 1-.06.5Z" class="shade90"/>
    <path fill="#fff" d="m231.62 80.13 7.66 20.51 6.975-15.29-1.04-4.975-6.2-4.905" class="shade0"/>
    <path fill="#14151f" d="M239.28 100.89a.24.24 0 0 1-.225-.16l-7.66-20.5a.238.238 0 0 1-.027-.1.242.242 0 0 1 .073-.191.25.25 0 0 1 .372.023c.022.027.038.06.047.093L239.305 100 246 85.32l-1-4.82-6.13-4.85a.25.25 0 0 1-.043-.352.252.252 0 0 1 .353-.043l6.2 4.905a.27.27 0 0 1 .09.145l1.04 5a.291.291 0 0 1 0 .155l-7.01 15.285a.254.254 0 0 1-.22.145Z" class="shade90"/>
    <path fill="#fff" d="M278 99.56s-5.08 12.76-10 16.8c-4.92 4.04-8.79 5.64-15.18.59-6.39-5.05-20.6-20.73-20.6-20.73s1.975-.97 4.61-6.625c2.635-5.655 8.385-9.22 8.385-9.22s4.22 5.565 6.445 8.245C253.885 91.3 262 100.5 262 100.5s1.9-3.76 5.145-8.74a28.731 28.731 0 0 1 6.795-7.435l3.5-1.645" class="shade0"/>
    <path fill="#14151f" d="M260.095 120.35c-2.215 0-4.585-.965-7.43-3.2-6.33-5-20.5-20.605-20.635-20.76a.277.277 0 0 1-.06-.215.246.246 0 0 1 .047-.106.243.243 0 0 1 .088-.074s1.95-1.04 4.5-6.5c2.64-5.655 8.42-9.295 8.5-9.33a.257.257 0 0 1 .33.06c.04.055 4.245 5.595 6.435 8.24 2 2.385 8.725 10.04 10.09 11.585.535-1 2.315-4.335 5-8.435a29.125 29.125 0 0 1 6.865-7.5l3.54-1.665a.253.253 0 0 1 .203-.027.243.243 0 0 1 .155.134.257.257 0 0 1 .024.102.259.259 0 0 1-.081.188.248.248 0 0 1-.091.053l-3.5 1.645a29.026 29.026 0 0 0-6.695 7.345c-3.2 4.91-5.115 8.68-5.135 8.72a.242.242 0 0 1-.19.135.252.252 0 0 1-.22-.085c-.08-.09-8.14-9.22-10.34-11.87-1.97-2.38-5.555-7.08-6.31-8.07-1 .675-5.79 4.05-8.095 9-2.115 4.53-3.82 6.1-4.46 6.57 1.74 1.915 14.5 15.845 20.375 20.5 6.11 4.81 9.8 3.575 14.865-.59 4.81-3.955 9.87-16.57 9.92-16.695a.265.265 0 0 1 .134-.137.251.251 0 0 1 .329.13c.013.03.02.063.02.096a.227.227 0 0 1-.018.096c-.21.525-5.16 12.865-10.065 16.895-2.875 2.305-5.365 3.765-8.095 3.765Z" class="shade90"/>
    <path fill="#fff" d="M272.38 87.225c-1.675 8.915.825 48.43.825 48.43s31.66 5.5 45.25-4.35c0 0-7.34-32.265-8.085-41.675-.745-9.41-10.65-12.64-15.73-13.595-5.08-.955-7.31.245-9.605 1-2.065.7-8.225 3.03-11.275 7.1l-.265.705" class="shade0"/>
    <path fill="#14151f" d="M292.26 137.4a126.917 126.917 0 0 1-19.095-1.5.261.261 0 0 1-.144-.079.26.26 0 0 1-.066-.151c0-.395-2.5-39.65-.82-48.5a.256.256 0 0 1 .461-.096.252.252 0 0 1 .039.19c-1.59 8.46.63 45.126.82 48.171 2.67.435 31.86 4.89 44.73-4.245-.565-2.5-7.345-32.565-8.055-41.545-.255-3.19-2.275-10.88-15.5-13.37-4.39-.82-6.645 0-8.635.715l-.845.3c-2.37.8-8.195 3.085-11.135 7l-.25.67a.248.248 0 0 1-.46.017.266.266 0 0 1-.01-.192l.265-.705a.153.153 0 0 1 .035-.06c3-4 9-6.365 11.395-7.185l.835-.3c2.05-.74 4.375-1.58 8.895-.73 2.095.39 6.12 1.39 9.58 3.665 3.88 2.55 6 5.965 6.35 10.155.74 9.285 8 41.315 8.085 41.64a.247.247 0 0 1-.013.142.247.247 0 0 1-.087.113c-6.485 4.655-17.055 5.88-26.375 5.88Zm.34-66.13s-3.035.74-3.345-2.5c-.31-3.24-3.82-13.38-3.82-13.38l6.94-.725s3.24.16 3.86 4.11c.62 3.95-1.5 4.89-1.47 6.85.03 1.96-2.165 5.645-2.165 5.645Z" class="shade90"/>
    <path fill="#fff" d="M292.47 66.29s.03 5.37.96 7.77c.125.32 1.385 2.405 1.55 2.655 1.27 2-5.7 7.355-7.775 7.15-2.39-.235-2.355-1.345-2.695-3.72l-1.365-11.755 9.4-2.3" class="shade0"/>
    <path fill="#14151f" d="M287.315 84.12h-.135c-2.415-.24-2.57-1.375-2.85-3.445l-.065-.5-1.37-11.76a.257.257 0 0 1 .045-.172.257.257 0 0 1 .145-.103l9.4-2.3a.248.248 0 0 1 .276.12.251.251 0 0 1-.041.3c0 .055.04 5.355.945 7.685.105.285 1.335 2.32 1.5 2.61.335.535.235 1.255-.31 2.135-1.405 2.355-5.745 5.43-7.54 5.43Zm-3.895-15.54 1.405 12.025c.28 2.045.385 2.815 2.405 3 1.42.155 5.755-2.77 7.225-5.16.3-.5.595-1.16.31-1.605-.115-.185-1.43-2.335-1.57-2.7-.865-2.23-.96-6.855-.97-7.725l-8.805 2.165Z" class="shade90"/>
    <path fill="#14151f" d="M291.39 67.855c-.675 1.695-1.11 3.5-1.845 5.15a5.406 5.406 0 0 1-1.82 2.37 1.954 1.954 0 0 1-1.96.2 6.823 6.823 0 0 0-1.95-.33l-.67-6.855 8.74-1.79c-.2.435-.35.9-.495 1.255Zm-11.64-2.45s.11-2.245.235-4.945c.054-1.439.182-2.874.385-4.3l5.085-.1" class="shade90"/>
    <path fill="#fff" d="M282.025 57.035a22.044 22.044 0 0 0-2.15 10.82c.375 5.195 4.075 6.185 6.41 5.47 3.1-.955 6.73-5.8 7.1-11.32.37-5.52-7.745-8.26-11.36-4.97Z" class="shade0"/>
    <path fill="#14151f" d="M284.875 73.785a4.945 4.945 0 0 1-2.79-.85c-1-.69-2.245-2.125-2.46-5.06a22.528 22.528 0 0 1 2.18-10.96.575.575 0 0 1 .05-.065c1.895-1.725 5.19-2 8-.615 2.5 1.215 3.93 3.38 3.765 5.785-.38 5.685-4.07 10.56-7.275 11.54a5.004 5.004 0 0 1-1.47.225Zm-2.65-16.595a21.994 21.994 0 0 0-2.1 10.645c.16 2.17.935 3.79 2.245 4.685a4.501 4.501 0 0 0 3.845.565c3-.915 6.56-5.7 6.92-11.095.15-2.2-1.155-4.18-3.5-5.305-2.61-1.265-5.635-1.06-7.41.505Z" class="shade90"/>
    <path fill="#fff" d="M291.5 67.915s2.54 0 3.325-2.04c.785-2.04-1.08-2.76-1.815-1.87a5.08 5.08 0 0 0-.64 1.215" class="shade0"/>
    <path fill="#14151f" d="M291.5 68.165a.251.251 0 0 1-.25-.25.25.25 0 0 1 .25-.25s2.375-.025 3.09-1.88c.37-.96.08-1.55-.315-1.78a.835.835 0 0 0-1.075.16c-.255.353-.458.74-.605 1.15a.246.246 0 0 1-.133.137.256.256 0 0 1-.192.003.258.258 0 0 1-.136-.134.257.257 0 0 1-.004-.191c.166-.458.395-.89.68-1.285a1.34 1.34 0 0 1 1.715-.27c.575.335 1 1.14.53 2.39-.835 2.17-3.435 2.2-3.555 2.2Z" class="shade90"/>
    <path fill="#fff" d="M294.235 64.87s.245.875-.72 1.87Z" class="shade0"/>
    <path fill="#14151f" d="M293.5 67a.248.248 0 0 1-.232-.152.254.254 0 0 1-.016-.144.254.254 0 0 1 .068-.129c.845-.865.665-1.6.66-1.63a.26.26 0 1 1 .5-.135c0 .045.275 1.03-.785 2.115a.238.238 0 0 1-.195.075Z" class="shade90"/>
    <path fill="#fff" d="M283.73 63.745s-.69 1.295-1.19 2.08c-.5.785-.8 1.06-.42 1.595.38.535 1.83.315 2.13.04" class="shade0"/>
    <path fill="#14151f" d="M283.075 68a2.605 2.605 0 0 1-.285 0 1.19 1.19 0 0 1-.875-.42c-.425-.6-.155-1 .22-1.575l.195-.3c.5-.765 1.175-2.05 1.18-2.06a.248.248 0 0 1 .245-.133.26.26 0 0 1 .171.09.239.239 0 0 1 .046.086.25.25 0 0 1-.017.192c-.03.055-.705 1.31-1.205 2.095l-.2.305c-.38.58-.445.7-.225 1a.71.71 0 0 0 .5.21c.426.056.86-.017 1.245-.21a.247.247 0 0 1 .341.027.25.25 0 0 1-.006.343 2.313 2.313 0 0 1-1.33.35Zm11.035-10.405s1.855 2.28 1.03 3.915a42.444 42.444 0 0 1-3.225 4.68l-.63-.165c-.18-1-.075-3.55-.205-4.915a4.965 4.965 0 0 0-1.77-3.215l4.8-.3Zm-7.343 6.293c.038-.178-.044-.346-.181-.375-.138-.029-.28.092-.318.27-.037.179.044.347.182.376.138.029.28-.092.317-.27Zm-5.372.064c.038-.178-.044-.346-.182-.375-.137-.03-.28.092-.317.27-.037.178.044.346.182.375.137.03.28-.092.317-.27Z" class="shade90"/>
    <path fill="#fff" d="M288.29 61.595s-2.075-.79-3.25-.715Z" class="shade0"/>
    <path fill="#14151f" d="M288.29 61.845a.283.283 0 0 1-.09 0s-2.03-.77-3.145-.705a.238.238 0 0 1-.242-.135.24.24 0 0 1-.023-.095.231.231 0 0 1 .012-.098.243.243 0 0 1 .223-.167c1.225-.08 3.265.7 3.35.73a.248.248 0 0 1 .14.132.245.245 0 0 1 .005.193.24.24 0 0 1-.23.145Z" class="shade90"/>
    <path fill="#fff" d="M282.255 60.825A6.324 6.324 0 0 0 280 61.5Z" class="shade0"/>
    <path fill="#14151f" d="M280 61.73a.25.25 0 0 1-.13-.47 6.555 6.555 0 0 1 2.35-.685.26.26 0 0 1 .27.225.248.248 0 0 1-.225.27c-.745.078-1.47.29-2.14.625a.295.295 0 0 1-.125.035Z" class="shade90"/>
    <path fill="#fff" d="M316.59 146.175c-10.45 0-12.635-12.785-12.655-12.92a.253.253 0 1 1 .5-.08c0 .13 2.135 12.5 12.17 12.5h.535a.261.261 0 0 1 .096.015.25.25 0 0 1 .164.225.26.26 0 0 1-.013.096.246.246 0 0 1-.222.164h-.575Z" class="shade0"/>
    <path fill="#14151f" d="M290.85 99.21h-3.625a.25.25 0 0 1-.25-.25v-2.8a.25.25 0 1 1 .5 0v2.55h3.135l.62-16.5a.25.25 0 0 1 .27-.21.256.256 0 0 1 .24.26l-.63 16.725a.251.251 0 0 1-.26.225Z" class="shade90"/>
    <path fill="#fff" d="M270.45 117.58a7.271 7.271 0 0 0-3.185-2.38c-2.455-.875-5.055-3.375-6.04-3.815-.985-.44-2.15 1.5-.5 3.175l3.755 3.76" class="shade0"/>
    <path fill="#14151f" d="M264.5 118.57a.232.232 0 0 1-.175-.075 899.11 899.11 0 0 1-3.755-3.76c-1.12-1.13-1.07-2.385-.57-3.105a1.073 1.073 0 0 1 1.345-.475 10.97 10.97 0 0 1 1.645 1.125c1.195.9 2.835 2.135 4.375 2.685a7.515 7.515 0 0 1 3.305 2.46.26.26 0 0 1 .051.185.248.248 0 0 1-.279.219.24.24 0 0 1-.167-.094 6.975 6.975 0 0 0-3.075-2.295c-1.615-.58-3.29-1.84-4.5-2.76a11.603 11.603 0 0 0-1.55-1.07.61.61 0 0 0-.73.305c-.38.55-.38 1.56.525 2.47l3.75 3.755a.239.239 0 0 1 .054.082.243.243 0 0 1 0 .192.245.245 0 0 1-.054.081.236.236 0 0 1-.195.075Z" class="shade90"/>
    <path fill="#fff" d="M270.5 126.6c-5.36.385-10.9-.27-11.81-5.35-.91-5.08.53-6.05 8.23-4.865a17.045 17.045 0 0 1 6.465 2.245l12.26.225-2.81 10s-9.755-2.44-12.335-2.255Z" class="shade0"/>
    <path fill="#14151f" d="M282.85 129.125h-.06c-.1-.025-9.765-2.45-12.255-2.265-7.36.525-11.31-1.29-12.075-5.56-.445-2.5-.295-3.82.5-4.655 1.07-1.095 3.235-1.23 8-.5a17.434 17.434 0 0 1 6.5 2.24l12.195.225a.244.244 0 0 1 .195.1.25.25 0 0 1 .04.215l-2.81 10a.247.247 0 0 1-.23.2Zm-12.035-2.785c2.725 0 10.38 1.865 11.86 2.235l2.655-9.475-11.935-.22a.251.251 0 0 1-.13-.04 16.91 16.91 0 0 0-6.37-2.205c-4.5-.7-6.635-.6-7.565.35-.675.69-.785 1.955-.38 4.22.71 3.97 4.5 5.655 11.545 5.145l.32-.01Z" class="shade90"/>
    <path fill="#fff" d="M264.735 126.455c-5.78.825-7.75-2.415-4.025-2.38Z" class="shade0"/>
    <path fill="#14151f" d="M262.925 126.84c-2.19 0-3.655-.63-4.165-1.355a.877.877 0 0 1-.11-.935c.25-.475 1-.72 2.06-.725a.257.257 0 0 1 .25.255.248.248 0 0 1-.25.245h-.065c-.965 0-1.435.235-1.55.46a.382.382 0 0 0 .075.415c.46.655 2.32 1.47 5.53 1a.255.255 0 0 1 .285.21.256.256 0 0 1-.049.187.258.258 0 0 1-.166.098c-.611.093-1.227.141-1.845.145Z" class="shade90"/>
    <path fill="#fff" d="M260.5 124.065c-2.91.215-5.43-3.18-1.7-2.905Z" class="shade0"/>
    <path fill="#14151f" d="M260.235 124.325a4.122 4.122 0 0 1-1.865-.436 4.13 4.13 0 0 1-1.465-1.234 1.086 1.086 0 0 1-.1-1.165c.28-.46.955-.65 2-.58a.268.268 0 0 1 .096.025c.03.015.057.035.078.061a.238.238 0 0 1 .049.086.232.232 0 0 1 .012.098.257.257 0 0 1-.09.168.257.257 0 0 1-.18.062c-1.16-.085-1.47.21-1.55.34a.676.676 0 0 0 .1.645 3.656 3.656 0 0 0 3.15 1.42.255.255 0 0 1 .27.23.245.245 0 0 1-.062.181.248.248 0 0 1-.173.084c-.09.01-.18.015-.27.015Z" class="shade90"/>
    <path fill="#fff" d="M258.8 121.16c-3.28.195-2.6-3.205.58-2.655Z" class="shade0"/>
    <path fill="#14151f" d="M258.54 121.42c-.955 0-1.67-.315-2-.885a1.351 1.351 0 0 1-.154-.743c.022-.257.117-.503.274-.707.5-.725 1.545-1.035 2.745-.825a.24.24 0 0 1 .205.285.253.253 0 0 1-.29.205c-1.185-.205-1.945.19-2.255.625a.85.85 0 0 0-.09.915c.25.45.905.67 1.795.62a.245.245 0 0 1 .182.062.282.282 0 0 1 .059.078.254.254 0 0 1-.211.36l-.26.01Z" class="shade90"/>
    <path fill="#fff" d="M259.38 118.5c-3.245.15-7.375.415-8.88-.455-2.29-1.325 6.43-2.395 10.055-2.07" class="shade0"/>
    <path fill="#14151f" d="M254.775 118.915c-1.875 0-3.525-.145-4.4-.65-.5-.295-.545-.605-.5-.81.435-1.37 7.92-1.97 10.68-1.725a.256.256 0 0 1 .17.09.26.26 0 0 1 .046.087.27.27 0 0 1 .009.098.257.257 0 0 1-.27.225c-3.355-.305-9.905.585-10.155 1.375 0 0 .025.095.25.225 1.34.78 5.08.6 8.08.455l.66-.03a.25.25 0 0 1 .177.427.255.255 0 0 1-.177.073l-.66.03c-1.26.065-2.635.13-3.91.13Z" class="shade90"/>
    <path fill="#fff" d="M262.1 116.95s-.7-1.11.38-1.305c1.08-.195 6.655.725 7.47 1.435.815.71.08 2.34.08 2.34l-3.58.795m28.37-22.145 1.4 28.395a77.042 77.042 0 0 0 12.625-1.95 6.642 6.642 0 0 0 5.11-6.78c-.275-5.59-.5-10.325-.715-13.105a69.095 69.095 0 0 0-3.74-18.575" class="shade0"/>
    <path fill="#14151f" d="M296.22 126.715a.245.245 0 0 1-.165-.06.266.266 0 0 1-.085-.175l-1.395-28.4a.252.252 0 0 1 .427-.177.25.25 0 0 1 .073.177l1.385 28.145a77.777 77.777 0 0 0 12.335-1.93 6.394 6.394 0 0 0 4.915-6.5c-.305-6.15-.54-10.555-.715-13.095a68.178 68.178 0 0 0-3.715-18.5.261.261 0 0 1 .15-.325.25.25 0 0 1 .32.15 68.81 68.81 0 0 1 3.75 18.59c.17 2.545.41 6.955.715 13.105a6.9 6.9 0 0 1-5.3 7.035 77.382 77.382 0 0 1-12.67 1.96h-.025Z" class="shade90"/>
    <path fill="#fff" d="m304.37 114.11-27.945 4.245s-2 2.845-3.665 9.355 1.16 9.185 1.16 9.185 12.08-3.525 27.13-6.17c6.38-1.125 15.88-2.465 12.705-16.14" class="shade0"/>
    <path fill="#14151f" d="M273.92 137.145a.263.263 0 0 1-.175-.07c-.12-.11-2.895-2.845-1.225-9.425 1.645-6.5 3.615-9.32 3.7-9.44a.256.256 0 0 1 .072-.067.252.252 0 0 1 .093-.033l27.95-4.245a.248.248 0 0 1 .182.048.247.247 0 0 1 .098.162.247.247 0 0 1-.205.285l-27.84 4.225c-.34.525-2.1 3.415-3.565 9.19-1.425 5.615.53 8.3 1 8.835 1.435-.41 13-3.67 27-6.135l.425-.07c3.915-.685 8.79-1.54 11.2-5.18 1.665-2.5 1.95-5.975.88-10.585a.241.241 0 0 1-.003-.1.25.25 0 0 1 .104-.166.252.252 0 0 1 .358.06.268.268 0 0 1 .041.091c1.105 4.755.795 8.345-.945 10.975-2.53 3.82-7.5 4.695-11.535 5.395l-.42.075c-14.865 2.615-27 6.13-27.105 6.165l-.085.01Zm25.105 40.6-1.835-30.49-6.665-.33.025-.5 7.11.35.015.225 1.85 30.715-.5.03Z" class="shade90"/>
    <path fill="#fff" d="M284.23 68.895a2.965 2.965 0 0 0 2.535-2.225" class="shade0"/>
    <path fill="#14151f" d="M284.23 69.145a.25.25 0 0 1-.25-.23.244.244 0 0 1 .225-.27 2.7 2.7 0 0 0 2.32-2.035.241.241 0 0 1 .111-.155.236.236 0 0 1 .189-.025c.064.015.12.056.154.112a.249.249 0 0 1 .031.188 3.25 3.25 0 0 1-2.76 2.415h-.02Zm8.025-10.21s-3.5.725-6.285-.095-2.03-1.5-2.03-1.5-3 2.5-5.27-.29c-2.27-2.79 1.205-5.05 1.205-5.05a2.77 2.77 0 0 1 1.89-1.5c1.5-.435 2.8 1.21 2.8 1.21a31.847 31.847 0 0 1 6.09-.05c2.42.34 3.965 2.66 3.965 2.66s1.595.675 1.935 3.53c.34 2.855-2.5 3.675-2.5 3.675" class="shade90"/>
    <path fill="#fff" d="M295.445 290.395h27.165a10.16 10.16 0 0 0 1.45-5.315c0-3.19-3.575-10.25-3.575-10.25h-13.2a30.419 30.419 0 0 1-3.285 3.43c-2.375 2.105-5.46 4.375-6.865 6.5-2.515 3.74-1.69 5.635-1.69 5.635Z" class="shade0"/>
    <path fill="#14151f" d="M322.61 290.645h-27.165a.256.256 0 0 1-.23-.15c-.035-.08-.85-2.055 1.71-5.895 1.07-1.6 3.07-3.28 5-4.9.655-.55 1.3-1.095 1.905-1.625a30.666 30.666 0 0 0 3.255-3.4.253.253 0 0 1 .195-.095h13.22a.264.264 0 0 1 .131.037.268.268 0 0 1 .094.098c.145.29 3.6 7.15 3.6 10.365a10.344 10.344 0 0 1-1.5 5.455.253.253 0 0 1-.215.11Zm-27-.5h26.89a10.207 10.207 0 0 0 1.335-5.065c0-2.855-3-9-3.5-10h-12.93a31.162 31.162 0 0 1-3.24 3.37 86.997 86.997 0 0 1-1.915 1.63c-1.905 1.605-3.88 3.26-4.905 4.8-2 2.995-1.845 4.76-1.715 5.265h-.02Z" class="shade90"/>
    <path fill="#cadce1" d="M295.925 288.655c-.096.488-.072.993.07 1.47h26.085c.29-.464.532-.957.72-1.47h-26.875Z" class="shade50"/>
    <path fill="#14151f" d="M323.095 288.42h-27.65a.252.252 0 0 1-.25-.25.252.252 0 0 1 .25-.25h27.65a.249.249 0 0 1 .25.25.25.25 0 0 1-.25.25Z" class="shade90"/>
    <path fill="#14151f" d="M298.185 290.535a.254.254 0 0 1-.173-.069.256.256 0 0 1-.077-.171l-.07-2.21a.243.243 0 0 1 .016-.096.243.243 0 0 1 .13-.141.237.237 0 0 1 .094-.023.251.251 0 0 1 .25.24l.07 2.215a.25.25 0 0 1-.145.234.239.239 0 0 1-.095.021Zm2.395 0a.247.247 0 0 1-.173-.07.243.243 0 0 1-.077-.17l-.075-2.21a.25.25 0 1 1 .5 0l.075 2.215a.254.254 0 0 1-.068.177.255.255 0 0 1-.172.078l-.01-.02Zm2.42 0a.247.247 0 0 1-.175-.068.257.257 0 0 1-.075-.172l-.075-2.21a.261.261 0 0 1 .015-.096.25.25 0 0 1 .225-.164.251.251 0 0 1 .25.24l.075 2.215a.253.253 0 0 1-.245.255H303Zm2.365 0a.252.252 0 0 1-.25-.24l-.07-2.21a.261.261 0 0 1 .015-.096.25.25 0 0 1 .404-.096.256.256 0 0 1 .081.172l.07 2.215a.249.249 0 0 1-.24.255h-.01Zm2.395 0a.255.255 0 0 1-.174-.069.25.25 0 0 1-.076-.171l-.075-2.21a.247.247 0 0 1 .148-.238.25.25 0 0 1 .097-.022.25.25 0 0 1 .25.24l.075 2.215a.26.26 0 0 1-.017.096.246.246 0 0 1-.228.159Zm2.39 0a.252.252 0 0 1-.25-.24l-.07-2.21a.261.261 0 0 1 .015-.096.278.278 0 0 1 .051-.084.26.26 0 0 1 .174-.08.256.256 0 0 1 .26.24l.07 2.215a.248.248 0 0 1-.24.255h-.01Zm2.395 0a.25.25 0 0 1-.25-.24l-.075-2.21a.247.247 0 0 1 .068-.181.254.254 0 0 1 .177-.079.251.251 0 0 1 .25.24l.075 2.215a.24.24 0 0 1-.07.178.236.236 0 0 1-.08.056.239.239 0 0 1-.095.021Zm2.39 0a.254.254 0 0 1-.173-.069.256.256 0 0 1-.077-.171l-.07-2.21a.243.243 0 0 1 .016-.096.243.243 0 0 1 .13-.141.237.237 0 0 1 .094-.023.251.251 0 0 1 .25.24l.07 2.215a.25.25 0 0 1-.145.234.239.239 0 0 1-.095.021Zm2.395 0a.251.251 0 0 1-.25-.24l-.075-2.21a.254.254 0 0 1 .423-.194c.024.023.043.05.056.079.013.03.02.062.021.095l.075 2.215a.25.25 0 0 1-.24.255h-.01Zm2.395 0a.242.242 0 0 1-.25-.24l-.075-2.21a.225.225 0 0 1 .015-.096.243.243 0 0 1 .13-.141.241.241 0 0 1 .095-.023.25.25 0 0 1 .25.24l.075 2.215c0 .066-.026.13-.071.177a.251.251 0 0 1-.174.078h.005Zm-8.955-6.035a.255.255 0 0 1-.18-.075c-.23-.23-5.655-5.66-11.785-1.205a.24.24 0 0 1-.278.013.256.256 0 0 1-.017-.418c6.5-4.71 12.375 1.205 12.435 1.265a.246.246 0 0 1 .076.175.238.238 0 0 1-.076.175.226.226 0 0 1-.175.07Zm2.175-3.355h-.035l-10.585-1.38a.24.24 0 0 1-.21-.182.25.25 0 0 1 .275-.313l9.185 1.195-6-3.115a.254.254 0 0 1-.041-.417.249.249 0 0 1 .151-.058l5.27-.18-3.765-1.635a.252.252 0 0 1-.124-.324.252.252 0 0 1 .319-.136l4.785 2.08a.253.253 0 0 1 .124.111c.027.05.036.108.026.164a.256.256 0 0 1-.24.205l-5.43.185 6.41 3.33a.25.25 0 0 1-.115.47Z" class="shade90"/>
    <path fill="#fff" d="M264.43 288.15s1-6.965 9.5-11.46Z" class="shade0"/>
    <path fill="#14151f" d="M264.435 288.4h-.04a.248.248 0 0 1-.206-.187.249.249 0 0 1-.004-.098c0-.07 1.13-7.135 9.63-11.64a.246.246 0 0 1 .335.105c.015.029.025.06.029.092a.265.265 0 0 1-.009.097.25.25 0 0 1-.12.146c-8.265 4.38-9.36 11.205-9.37 11.275a.25.25 0 0 1-.245.21Z" class="shade90"/>
    <path fill="#fff" d="M321.425 277.055s-2.39 3.19-.65 11Z" class="shade0"/>
    <path fill="#14151f" d="M320.775 288.325a.255.255 0 0 1-.157-.054.257.257 0 0 1-.088-.141c-1.745-7.855.595-11.09.695-11.225a.267.267 0 0 1 .073-.065.23.23 0 0 1 .092-.032.244.244 0 0 1 .185.047c.027.02.049.045.065.073a.248.248 0 0 1-.015.277c0 .03-2.295 3.215-.605 10.815a.232.232 0 0 1 .003.098.256.256 0 0 1-.193.202l-.055.005Z" class="shade90"/>
    <path fill="#ecc6cd" d="M223.16 62.09a12.82 12.82 0 1 1 12.405-16.14 12.81 12.81 0 0 1-1.279 9.728 12.818 12.818 0 0 1-7.786 5.972c-1.089.292-2.212.44-3.34.44Zm.04-25.15c-1.082.003-2.16.146-3.205.425a12.327 12.327 0 0 0-9.119 12.706 12.328 12.328 0 0 0 10.685 11.42 12.323 12.323 0 0 0 13.284-8.252A12.327 12.327 0 0 0 229.34 38.6a12.201 12.201 0 0 0-6.14-1.66Z" class="shade40"/>
    <path fill="#fff" d="M220.08 65.27v-.145s2.5-6 3.215-7.155c.715-1.155 1.75.87 1.365 2.2s-1.535 4.64-1.535 4.64" class="shade0"/>
    <path fill="#14151f" d="M220.08 65.5a.25.25 0 0 1-.25-.25v-.145a.191.191 0 0 1 0-.095c.1-.25 2.5-6.03 3.23-7.195.37-.585.8-.5.965-.4.705.315 1.15 1.78.855 2.805-.385 1.32-1.53 4.62-1.54 4.65a.248.248 0 0 1-.124.158.256.256 0 0 1-.201.016.243.243 0 0 1-.147-.138.249.249 0 0 1 .002-.201c0-.03 1.15-3.32 1.53-4.625.25-.875-.18-2.03-.575-2.21-.045 0-.165-.07-.34.21-.675 1.08-2.945 6.5-3.175 7.075v.095a.253.253 0 0 1-.068.169.253.253 0 0 1-.162.08Z" class="shade90"/>
    <path fill="#fff" d="M217.195 59.025a11.501 11.501 0 0 0 3.66 1.445l13.535-13.535a11.374 11.374 0 0 0-5.615-7.63l-15.585 15.58a11.365 11.365 0 0 0 2.03 2.635L226 46.745c1.135-1.135 2.67.83 1.55 1.95l-10.355 10.33Zm9.305 1.205a11.654 11.654 0 0 0 2.915-1.345 11.459 11.459 0 0 0 4.745-6.32l-7.66 7.665Zm-14.335-7.845L226.3 38.25a11.452 11.452 0 0 0-14.18 8.027 11.45 11.45 0 0 0 0 5.973l.045.135Z" class="shade0" opacity=".54"/>
    <path fill="#ecc6cd" d="m224.65 61.885 5.255 20.05 3.565-.955-5.255-20.05" class="shade40"/>
    <path fill="#14151f" d="m229.725 82.24-5.315-20.29.48-.13 5.19 19.81 3.085-.83-5.19-19.81.485-.125 5.315 20.29-4.05 1.085Z" class="shade90"/>
    <path fill="#fff" d="M220.43 64.785s3.675-3.14 6.285-3.285c2.61-.145-2.66 4.205-4.205 4.975" class="shade0"/>
    <path fill="#14151f" d="M222.5 66.725a.252.252 0 0 1-.225-.135.251.251 0 0 1 .11-.335c1.415-.71 4.96-3.745 4.78-4.425 0-.045-.14-.1-.45-.085-2.5.14-6.1 3.2-6.135 3.23a.246.246 0 0 1-.27.054.255.255 0 0 1-.08-.41c.155-.129 3.77-3.199 6.435-3.344.68-.04.9.225.96.45.32 1.205-3.94 4.45-5.04 5a.217.217 0 0 1-.085 0Z" class="shade90"/>
    <path fill="#fff" d="M222.3 66.5s2.66-2.2 5.27-2.345c2.61-.145-2.655 4.205-4.205 5" class="shade0"/>
    <path fill="#14151f" d="M223.365 69.385a.255.255 0 0 1-.271-.388.253.253 0 0 1 .161-.112c1.415-.705 4.96-3.74 4.775-4.425 0-.04-.135-.095-.445-.08-2.5.14-5.1 2.265-5.125 2.29a.25.25 0 0 1-.378-.31.232.232 0 0 1 .063-.075c.11-.095 2.75-2.255 5.415-2.405.54-.03.87.125.955.455.32 1.205-3.935 4.45-5.035 5a.324.324 0 0 1-.115.05Z" class="shade90"/>
    <path fill="#fff" d="M223.315 69.21a7.627 7.627 0 0 1 4.355-1.74c2.61-.145-2.735 4-4.28 4.76" class="shade0"/>
    <path fill="#14151f" d="M223.39 72.5a.256.256 0 0 1-.11-.5c1.5-.745 5-3.61 4.845-4.225 0 0-.1-.08-.445-.065a7.392 7.392 0 0 0-4.195 1.68.24.24 0 0 1-.175.073.248.248 0 0 1-.175-.073.24.24 0 0 1 0-.35 7.726 7.726 0 0 1 4.5-1.805c.54-.035.865.115.95.435.315 1.185-4.135 4.315-5.105 4.8a.289.289 0 0 1-.09.03Z" class="shade90"/>
    <path fill="#fff" d="m232.61 129.775 2-13.32s-3.865-6.08-7.905-1.11 5.905 14.43 5.905 14.43Zm.085.015 2.025-13.32s5.5-4.655 7.88 1.29-9.905 12.03-9.905 12.03Z" class="shade0"/>
    <path fill="#ecc6cd" d="m343 75.37 2.4-15.765s-4.575-7.195-9.36-1.315c-4.785 5.88 6.96 17.08 6.96 17.08Zm.12.02 2.4-15.77s6.5-5.5 9.325 1.53c2.825 7.03-11.725 14.24-11.725 14.24Zm-181.37 95.92 6.66-14.5s-2.41-8.175-8.63-3.845c-6.22 4.33 1.97 18.345 1.97 18.345Zm.095.04 6.66-14.5s7.775-3.5 8.54 4.045c.765 7.545-15.2 10.455-15.2 10.455Z" class="shade40"/>
    <path fill="#fff" d="m222.755 224.955 7.3-16.305s-2.79-9.135-9.71-4.21c-6.92 4.925 2.41 20.515 2.41 20.515Zm.105.045 7.3-16.305s8.67-4 9.605 4.44C240.7 221.575 222.86 225 222.86 225Z" class="shade0"/>
    <path fill="#ecc6cd" d="m39.69 65.945-9.92-12.5s-8.385-1.545-7.33 5.965c1.055 7.51 17.25 6.535 17.25 6.535Zm.08-.065-9.92-12.5s.395-8.5 7.47-5.79c7.075 2.71 2.45 18.29 2.45 18.29Z" class="shade40"/>
    <path fill="#14151f" d="m250.78 143.15-18.225-3.43.09-.495 17.74 3.34 1.98-9.715.49.1-2.075 10.2ZM133.075 10.455l-.945-.13c-2.175-.3-4.225-.58-6.56-1.08l.1-.5c2.32.5 4.365.77 6.53 1.07l.945.13-.07.51Zm-17.7 5.69-.5-.08c.13-.8.27-1.615.415-2.435.34-1.97.695-4 .935-6.14l.03-.26.255.055c.179.022.357.06.53.11 1.735.355 3.5.6 5.235.835l.905.125-.07.5-.9-.125c-1.645-.225-3.335-.455-5-.785a.7.7 0 0 1-.5.05h-.06c-.24 2-.57 3.91-.89 5.765-.115.775-.26 1.585-.385 2.385Zm178.86 39.705h-.075a.257.257 0 0 1-.147-.124.258.258 0 0 1-.018-.191c0-.065.5-1.71-1.72-3.35-2.22-1.64-7.815.165-7.87.18a.25.25 0 0 1-.28-.085l-1.55-2.08a.25.25 0 0 1 .052-.353.254.254 0 0 1 .353.053l1.44 1.935c1-.315 5.895-1.725 8.15-.05 2.5 1.86 1.93 3.815 1.905 3.9a.252.252 0 0 1-.24.165Zm-6.855 3.915c-2.38 0-3.465-1.2-3.87-1.84a3.337 3.337 0 0 1-2.73 1.19c-2.155-.04-3.445-4.245-3.5-4.42-.01-.032-.013-.065-.01-.098a.244.244 0 0 1 .029-.095.251.251 0 0 1 .461.048c.34 1.12 1.545 4.035 3.03 4.065a2.79 2.79 0 0 0 2.53-1.28.245.245 0 0 1 .45 0c.035.075.79 1.905 3.61 1.905s3.46-.73 3.465-.74a.256.256 0 0 1 .35-.035.25.25 0 0 1 .095.16.246.246 0 0 1-.045.18c-.07.12-.78.96-3.865.96Zm7.665 3.5a2.78 2.78 0 0 1-.84-.13.239.239 0 0 1-.086-.047.24.24 0 0 1-.074-.268.256.256 0 0 1 .32-.155 1.965 1.965 0 0 0 1.5-.12 1.68 1.68 0 0 0 .635-1.355c.185-2.37-1.605-6.17-1.62-6.21a.235.235 0 0 1-.035-.099.245.245 0 0 1 .058-.196.25.25 0 0 1 .427.085c.075.16 1.865 3.955 1.67 6.455a2.142 2.142 0 0 1-.86 1.74c-.327.206-.708.31-1.095.3Z" class="shade90"/>
    <path fill="#F6D4A0" d="M286.91 66.39a2.883 2.883 0 0 1-2.829-3.448 2.885 2.885 0 1 1 2.829 3.448Zm0-5.27a2.388 2.388 0 0 0-2.203 1.472 2.381 2.381 0 0 0 .517 2.6 2.381 2.381 0 0 0 2.599.517 2.383 2.383 0 0 0 .772-3.889 2.388 2.388 0 0 0-1.685-.7Zm-6.575 5.27a2.888 2.888 0 0 1-2.665-1.78 2.885 2.885 0 1 1 2.665 1.78Zm0-5.27a2.383 2.383 0 0 0-1.686 4.072 2.381 2.381 0 0 0 2.599.517 2.383 2.383 0 0 0 .772-3.889 2.39 2.39 0 0 0-1.685-.7Z" class="shade10"/>
    <path fill="#F6D4A0" d="M282.72 63.785a.248.248 0 0 1-.231-.153.246.246 0 0 1 .051-.272c.03 0 .655-.615 1.955-.06a.251.251 0 0 1-.008.456.25.25 0 0 1-.187.004c-1-.42-1.395-.055-1.41-.04a.249.249 0 0 1-.17.065Zm10.78.405h-3.935a.25.25 0 0 1-.25-.25.25.25 0 0 1 .25-.25h3.935a.25.25 0 1 1 0 .5Z" class="shade10"/>
    <path fill="#14151f" d="M261.385 107.405a.242.242 0 0 1-.171-.087.25.25 0 0 1-.059-.183l.61-6.67a.264.264 0 0 1 .09-.168.257.257 0 0 1 .18-.062.254.254 0 0 1 .23.275l-.61 6.67a.236.236 0 0 1-.087.17.255.255 0 0 1-.086.046.243.243 0 0 1-.097.009Zm27.725-21.3a1.015 1.015 0 1 0 0-2.03 1.015 1.015 0 0 0 0 2.03Zm0 4.4a1.015 1.015 0 1 0 0-2.03 1.015 1.015 0 0 0 0 2.03Zm0 4.395a1.015 1.015 0 1 0 0-2.03 1.015 1.015 0 0 0 0 2.03Z" class="shade90"/>
    <path fill="#fff" d="m106.85 98.14-.85-.29s-11.31 2.805-17.115 19.725c-5.805 16.92 7.93 15.95 13.73 14.6 5.8-1.35 4.235-34.035 4.235-34.035Z" class="shade0"/>
    <path fill="#14151f" d="M97 133.09c-2.82 0-5.945-.59-7.905-2.75-2.345-2.6-2.5-6.92-.5-12.845 3-8.8 7.545-13.735 10.815-16.325 3.555-2.815 6.355-3.535 6.5-3.56a.225.225 0 0 1 .14 0l.87.29a.25.25 0 0 1 .17.225c.065 1.34 1.5 32.9-4.45 34.285a25.753 25.753 0 0 1-5.64.68Zm8.965-35c-.945.275-11.42 3.64-16.87 19.545-1.97 5.74-1.845 9.895.375 12.35 3.445 3.81 10.865 2.435 13.06 1.925 4.565-1.065 4.5-24.45 4.07-33.605l-.635-.215Z" class="shade90"/>
    <path fill="#fff" d="m81.925 194.38 19.825 2.715-12.585 87.57-11.635-1.595 4.395-88.69Z" class="shade0"/>
    <path fill="#14151f" d="M89.165 284.915h-.035l-11.63-1.6a.248.248 0 0 1-.16-.087.247.247 0 0 1-.055-.173l4.395-88.69a.232.232 0 0 1 .09-.18.264.264 0 0 1 .195-.055l19.825 2.72c.065.01.123.044.165.095a.25.25 0 0 1 .05.185l-12.59 87.57a.255.255 0 0 1-.25.215Zm-11.375-2.06 11.165 1.53 12.5-87.075-19.31-2.645-4.355 88.19Z" class="shade90"/>
    <path fill="#cadce1" d="M112.735 292.5H77.5c.323-2.378.342-4.787.055-7.17a25.78 25.78 0 0 1 .245-7.42l-1.525-41.535H99.5l-2.68 40.795s16.68 7.42 15.915 15.33Z" class="shade50"/>
    <path fill="#14151f" d="M112.965 292.75H77.2l.05-.29c.317-2.353.334-4.737.05-7.095a26.173 26.173 0 0 1 .245-7.47L76 236.125h23.765L97.095 277a56.874 56.874 0 0 1 8.11 4.65c5.5 3.825 8.095 7.5 7.78 10.86l-.02.24Zm-35.185-.5h34.72c.375-7.56-15.61-14.78-15.775-14.85l-.155-.075v-.17l2.66-40.53h-22.7l1.5 41.305v.03a25.719 25.719 0 0 0-.245 7.335 28.35 28.35 0 0 1-.005 6.955Z" class="shade90"/>
    <path fill="#14151f" d="m78.157 289.432-.013.5 33.063.871.013-.5-33.063-.871Z" class="shade90"/>
    <path fill="#fff" d="M99.9 195.695h20.015l-.58 88.465h-11.75L99.9 195.695Z" class="shade0"/>
    <path fill="#14151f" d="M119.335 284.41h-11.75a.246.246 0 0 1-.245-.23l-7.69-88.465a.25.25 0 0 1 .25-.27h20a.258.258 0 0 1 .176.074c.046.047.073.11.074.176l-.58 88.465a.246.246 0 0 1-.068.171.247.247 0 0 1-.167.079Zm-11.5-.5h11.27l.58-87.965h-19.5l7.65 87.965Z" class="shade90"/>
    <path fill="#14151f" d="M92.045 135.825s-4.35 3.19-6.96 12.905c-2.61 9.715-9.91 47.77-9.91 47.77l46.165 2.275V133.07l-29.295 2.755Z" class="shade90"/>
    <path fill="#fff" d="m114 78.34 10.44 1.19.14 12.845c-.035 2.605.15 3.795-2.39 4.38-2.205.5-13.28-.205-12.18-2.535.135-.29 4.04-6.81 4.13-7.175.675-2.715-.03-8.5-.03-8.5" class="shade0"/>
    <path fill="#14151f" d="M120 97.145c-3.36 0-8.95-.575-10.085-2a.94.94 0 0 1-.14-1.045c.05-.105.445-.775 1.195-2.045 1.055-1.795 2.825-4.8 2.925-5.09.655-2.63-.035-8.35-.04-8.405v-.03a.246.246 0 0 1-.087-.102.244.244 0 0 1-.023-.133.264.264 0 0 1 .28-.22L124.5 79.28a.246.246 0 0 1 .156.081.243.243 0 0 1 .064.164l.14 12.845v.55c0 2.25-.03 3.5-2.58 4.075-.753.124-1.517.175-2.28.15Zm-5.635-18.5c.1.865.645 5.93 0 8.47-.06.235-1 1.87-3 5.22-.58 1-1.125 1.905-1.17 2a.44.44 0 0 0 .07.5c1.275 1.58 10 2.085 11.83 1.665 2.165-.5 2.17-1.34 2.19-3.595v-.545l-.14-12.62-9.78-1.095Z" class="shade90"/>
    <path fill="#14151f" d="M122.9 86.415c-1.75-1.37-2.69-1.81-4.5-3.095a27.96 27.96 0 0 1-2.075-1.625c-.26-.545-.53-1.085-.82-1.61-.205-.375-.435-.845-.705-1.285l9.655.73.22 7.47c-.285.045-1.505-.655-1.775-.585Z" class="shade90"/>
    <path fill="#fff" d="M116.525 82.5a16.781 16.781 0 0 1-4.255-8c-1.23-5.875 6.025-10.195 10.405-7.2 0 0 5.71 6.5 5 12.115s-3.42 6.605-6.045 6.185a4.63 4.63 0 0 1-.65-.145" class="shade0"/>
    <path fill="#14151f" d="M122.625 85.94a7.033 7.033 0 0 1-1.05-.085 5.847 5.847 0 0 1-.685-.155.252.252 0 0 1 .043-.49.24.24 0 0 1 .097.01c.204.06.411.107.62.14a4.336 4.336 0 0 0 3.4-.67c1.225-.92 2-2.7 2.36-5.3.68-5.265-4.535-11.465-4.905-11.895-2-1.34-4.755-1.21-7.07.34-1.825 1.22-3.55 3.6-2.92 6.62a16.448 16.448 0 0 0 4.19 7.885.243.243 0 0 1 .083.182.246.246 0 0 1-.077.184.252.252 0 0 1-.187.07.251.251 0 0 1-.179-.091 16.942 16.942 0 0 1-4.32-8.125c-.57-2.735.63-5.47 3.135-7.145 2.505-1.675 5.5-1.79 7.655-.315.019.01.036.024.05.04.235.27 5.775 6.655 5.04 12.315-.355 2.735-1.215 4.635-2.56 5.635a4.429 4.429 0 0 1-2.72.85Z" class="shade90"/>
    <path fill="#fff" d="M126.915 74.5s1.37 2.34 2.225 2.875c.855.535-1.38 1.86-1.805 1.735" class="shade0"/>
    <path fill="#14151f" d="M127.39 79.345a.451.451 0 0 1-.125 0 .254.254 0 0 1-.125-.398.254.254 0 0 1 .171-.092.252.252 0 0 1 .099.01c.285 0 1.5-.67 1.65-1.135 0-.055.025-.09-.065-.15-.9-.56-2.255-2.86-2.31-2.955a.257.257 0 0 1-.035-.093.252.252 0 0 1 .4-.236c.026.02.048.045.065.074.375.635 1.5 2.375 2.145 2.785a.603.603 0 0 1 .24.81 3.276 3.276 0 0 1-2.11 1.38Zm-1.94-7.99c0 .03.41.345.44.38l-3.44 2.47s1.475-2.805 3-2.85Z" class="shade90"/>
    <path fill="#fff" d="M99.1 101.745c-2.68 8.65-6.72 27.97-19.365 49.87a67.397 67.397 0 0 0 4.925 1.815c4.4 1.415 9.28 3.125 13.865 3.69 6.59.805 18.205 3.405 24.82 2.755-.53-18.93-1.08-30.325 4.545-37.78.87-1.15 4.11-2.725 4.05-4.16v-.225a6.268 6.268 0 0 0-.155-1.1c-1.275-5.375-3.625-21.85-5.105-23.095-1.695-1.425-3.2-3.235-7.85-3.875-3.03-.415-8.44-.07-12.89 2.625" class="shade0"/>
    <path fill="#14151f" d="M121 160.23c-4.59 0-10.54-1-15.885-1.855-2.435-.4-4.735-.78-6.6-1-4.065-.5-8.27-1.865-12.335-3.19l-1.58-.5c-1.595-.5-3.21-1.11-4.94-1.82a.25.25 0 0 1-.104-.049.248.248 0 0 1-.056-.316c10.5-18.17 15.09-34.685 17.835-44.55.57-2.04 1.06-3.805 1.5-5.27a.262.262 0 0 1 .325-.175.258.258 0 0 1 .155.126.269.269 0 0 1 .02.199c-.45 1.455-.94 3.215-1.5 5.25-2.74 9.835-7.335 26.28-17.745 44.42a66.23 66.23 0 0 0 4.645 1.7l1.58.5c4.04 1.315 8.22 2.675 12.24 3.17 1.88.23 4.18.61 6.62 1 6.2 1 13.21 2.175 17.915 1.765l-.05-1.845c-.5-17.84-.82-28.605 4.65-35.855a9.165 9.165 0 0 1 1.685-1.46c1.1-.825 2.345-1.76 2.315-2.54v-.22a5.965 5.965 0 0 0-.145-1.055c-.425-1.785-.97-4.815-1.55-8.025-1.075-6-2.555-14.165-3.5-14.94-.21-.175-.415-.355-.625-.54-1.45-1.275-3.09-2.725-7.1-3.275-3.175-.44-8.41 0-12.725 2.585a.25.25 0 0 1-.345-.08.256.256 0 0 1 .085-.345c4.425-2.68 9.8-3.105 13.055-2.655 4.155.57 5.86 2.07 7.36 3.395.21.18.41.36.62.535 1 .825 2.13 6.835 3.645 15.23.575 3.205 1.12 6.23 1.54 8 .087.377.14.76.16 1.145v.22c.045 1.045-1.26 2-2.5 2.965-.58.39-1.112.846-1.585 1.36-5.365 7.11-5.06 17.81-4.55 35.54l.055 2.08a.243.243 0 0 1-.225.255c-.784.079-1.572.119-2.36.12Z" class="shade90"/>
    <path fill="#ecc6cd" d="M103.42 151.225a64.992 64.992 0 0 1-13.675-2.945c-1.96-.645-3.89-1.37-5.815-2.115a143.511 143.511 0 0 1-3.03 5.5c1.535.63 3.085 1.21 4.665 1.72 4.165 1.34 8.785 2.96 13.12 3.5 6.24.765 17.23 3.225 23.5 2.61-.08-2.91-.16-5.63-.22-8.175a105.67 105.67 0 0 1-18.545-.095Zm24.08-70.26s.195-.04.38-.35v-.04a1.86 1.86 0 0 0 .125-.295c.2-.62-.455-.855-.945-.525-.49.33-2.32-.125-2.32-.125s.29 2 1.305 2.445c1.015.445 2.075-.075 1.455-1.11Z" class="shade40"/>
    <path fill="#fff" d="M98.99 160.6h-.5v37.95h.5V160.6Z" class="shade0"/>
    <path fill="#cadce1" d="M138.695 292.5h-35.24a28.07 28.07 0 0 0 .05-7.17 25.85 25.85 0 0 1 .25-7.42l-3.71-41.535h23.245l-.5 40.795s16.645 7.42 15.905 15.33Z" class="shade50"/>
    <path fill="#14151f" d="M138.92 292.75h-35.76l.045-.29c.32-2.353.339-4.737.055-7.095a26.055 26.055 0 0 1 .24-7.465l-3.735-41.775h23.77l-.5 40.885a57.433 57.433 0 0 1 8.12 4.655c5.5 3.825 8.095 7.5 7.78 10.86l-.015.225Zm-35.18-.5h34.72c.38-7.56-15.605-14.78-15.77-14.85l-.15-.07.5-40.705h-22.72l3.685 41.3v.035a25.694 25.694 0 0 0-.245 7.335 28.644 28.644 0 0 1-.02 6.955Z" class="shade90"/>
    <path fill="#14151f" d="m104.116 289.431-.013.5 33.063.871.013-.5-33.063-.871Z" class="shade90"/>
    <path fill="#fff" d="m74.237 194.126-.017.499 47.132 1.605.017-.499-47.132-1.605ZM162.5 91.355a6.835 6.835 0 0 1-1.045-3.6c.035-2.455-1.31-5.57-1.375-6.585-.065-1.015 2.035-1.4 2.96.615.625 1.36 1.545 3.38 2.08 4.55" class="shade0"/>
    <path fill="#14151f" d="M162.5 91.605a.25.25 0 0 1-.21-.12 7.044 7.044 0 0 1-1.085-3.735c.025-1.535-.525-3.39-.925-4.74a10.41 10.41 0 0 1-.45-1.825 1.042 1.042 0 0 1 .875-1.05c.8-.2 1.945.2 2.565 1.55.62 1.35 1.54 3.375 2.075 4.55.016.03.026.063.028.097a.245.245 0 0 1-.146.247.25.25 0 0 1-.337-.14c-.535-1.17-1.45-3.19-2.075-4.55-.5-1.09-1.385-1.42-2-1.27-.25.066-.5.24-.5.53.095.584.239 1.157.43 1.716.41 1.385.97 3.28.945 4.895a6.536 6.536 0 0 0 1 3.46.249.249 0 0 1-.085.345.246.246 0 0 1-.105.04Z" class="shade90"/>
    <path fill="#fff" d="M171.555 83.88c-.5-.71-.96-1.585-1.715-2.06a4.837 4.837 0 0 0-1.33-.56c-.315-.035-.64-.06-.965-.08-.855-.045-1.765-.105-2.66-.11-.945 1.5-1.675 3.825-2.29 6.785a15.986 15.986 0 0 0-.155 6.44l-3.845 10.89 9.765.815s1.05-9.425 2.06-11.625c1.325-2.895 2.645-6.92 2.405-10.13a1 1 0 0 1-1.27-.365Z" class="shade0"/>
    <path fill="#14151f" d="M168.36 106.26h-.025l-9.765-.825a.25.25 0 0 1-.105-.037.27.27 0 0 1-.121-.185.254.254 0 0 1 .011-.113l3.825-10.82a16.511 16.511 0 0 1 .17-6.475c.655-3.16 1.415-5.41 2.325-6.87a.297.297 0 0 1 .21-.115c.7 0 1.4.04 2.08.08l.595.03c.33 0 .655.045 1 .08.505.124.987.324 1.43.595a5.197 5.197 0 0 1 1.465 1.65c.105.165.215.325.325.5a.761.761 0 0 0 .97.29.244.244 0 0 1 .225 0 .253.253 0 0 1 .12.195c.285 3.85-1.605 8.45-2.425 10.25-1 2.145-2.035 11.46-2.045 11.555a.248.248 0 0 1-.265.215Zm-9.425-1.3 9.2.78c.175-1.5 1.125-9.42 2.06-11.46.785-1.72 2.555-6.03 2.4-9.7a1.26 1.26 0 0 1-1.245-.555l-.33-.5a4.874 4.874 0 0 0-1.315-1.5 4.488 4.488 0 0 0-1.26-.53c-.275-.025-.59-.055-.91-.07l-.6-.03c-.625-.035-1.27-.075-1.91-.08-.845 1.41-1.56 3.57-2.19 6.585a15.933 15.933 0 0 0-.15 6.345.222.222 0 0 1 0 .13l-3.75 10.585Z" class="shade90"/>
    <path fill="#fff" d="M172.2 89.24c.795-1.675 2.175-4.06 1.81-6.225-.34-2.025-1.385-1.41-2.58 1.885" class="shade0"/>
    <path fill="#14151f" d="M172.2 89.5a.261.261 0 0 1-.105 0 .246.246 0 0 1-.13-.142.248.248 0 0 1 .01-.193l.325-.67c.79-1.6 1.77-3.59 1.465-5.405-.125-.735-.32-.945-.415-.95-.205-.04-.84.555-1.685 2.88a.242.242 0 0 1-.128.147.252.252 0 0 1-.279-.042.246.246 0 0 1-.08-.177.25.25 0 0 1 .017-.098c.795-2.19 1.53-3.265 2.2-3.21.43.04.715.5.86 1.37.335 1.97-.685 4.04-1.5 5.705-.115.235-.225.455-.325.665a.238.238 0 0 1-.23.12Z" class="shade90"/>
    <path fill="#fff" d="M171.5 84.71c1.155-2.5-1-5.835-2-2.455Z" class="shade0"/>
    <path fill="#14151f" d="M171.5 84.96a.261.261 0 0 1-.105 0 .246.246 0 0 1-.13-.142.248.248 0 0 1 .01-.193 3.421 3.421 0 0 0-.21-3.23c-.1-.125-.305-.34-.525-.295-.14.025-.5.2-.795 1.245a.252.252 0 0 1-.122.15.256.256 0 0 1-.193.02.252.252 0 0 1-.165-.31c.28-.96.675-1.5 1.18-1.595a1.04 1.04 0 0 1 1 .5 3.902 3.902 0 0 1 .275 3.745.258.258 0 0 1-.22.105Z" class="shade90"/>
    <path fill="#fff" d="M169.5 82.255c1.25-2.83-2-3.35-2.535-.365Z" class="shade0"/>
    <path fill="#14151f" d="M169.5 82.5a.261.261 0 0 1-.105 0 .254.254 0 0 1-.131-.14.252.252 0 0 1 .006-.19c.34-.765.355-1.41.045-1.77a.788.788 0 0 0-.825-.22c-.5.13-1.07.66-1.28 1.77a.254.254 0 0 1-.197.2.247.247 0 0 1-.098 0 .242.242 0 0 1-.195-.29c.21-1.14.825-1.945 1.645-2.165a1.27 1.27 0 0 1 1.33.38c.44.5.45 1.35.03 2.295a.247.247 0 0 1-.225.13Z" class="shade90"/>
    <path fill="#fff" d="M166.955 81.89c1.2-2.81 2.795-6.365 2.5-8-.415-2.45-4.23 4.885-5.14 8.19" class="shade0"/>
    <path fill="#14151f" d="M164.34 82.345h-.065a.247.247 0 0 1-.182-.212.25.25 0 0 1 .007-.098c.685-2.5 3.665-8.86 5.035-8.86.21 0 .475.14.57.7.265 1.585-1.095 4.755-2.295 7.55l-.245.575a.251.251 0 0 1-.46-.2l.245-.57c1.115-2.6 2.5-5.835 2.265-7.27-.035-.205-.09-.275-.105-.285-.6-.12-3.575 4.95-4.55 8.5a.246.246 0 0 1-.22.17Z" class="shade90"/>
    <path fill="#fff" d="M164.685 83.78s-.75-1-1.28-.1-1.55 6.11-1.195 7.065c.355.955 2.04.845 2.04.845l1.88-2.895m-46.745 3.64c4.37-1.535 10.56 3.54 10.56 3.54L150 111.445l10.195-16a54.226 54.226 0 0 1 7.465 2.365 19.302 19.302 0 0 1 6.34 4.345s-11.925 21.035-17.665 25.5c-5.74 4.465-11.335 1.97-11.335 1.97-5.635-4.5-8.065-6.085-11-8.57-6.925-5.875-8.29-7.54-9.58-9.62" class="shade0"/>
    <path fill="#14151f" d="M148.855 130.565h-.355a10.55 10.55 0 0 1-3.625-.705l-.05-.035c-2.65-2.105-4.625-3.6-6.21-4.8-1.81-1.375-3.235-2.455-4.79-3.775-7.145-6.06-8.405-7.7-9.63-9.68a.254.254 0 0 1-.034-.19.242.242 0 0 1 .114-.155.257.257 0 0 1 .345.085c1.2 1.935 2.44 3.545 9.525 9.56 1.545 1.31 2.97 2.39 4.77 3.755 1.585 1.2 3.55 2.69 6.19 4.785a11.497 11.497 0 0 0 11.085-1.955c5.365-4.175 16.385-23.295 17.5-25.255a19.169 19.169 0 0 0-6.145-4.2 54.353 54.353 0 0 0-7.26-2.315l-10.1 15.875a.265.265 0 0 1-.17.11.224.224 0 0 1-.103-.003.212.212 0 0 1-.092-.047l-20.03-15.57c-.065-.05-6.14-4.97-10.325-3.5a.25.25 0 0 1-.32-.15.254.254 0 0 1 .155-.32c4.45-1.565 10.545 3.37 10.805 3.58l19.805 15.4 10.05-15.795a.255.255 0 0 1 .265-.11 55.031 55.031 0 0 1 7.5 2.38 19.204 19.204 0 0 1 6.47 4.465.252.252 0 0 1 .035.29c-.5.86-12 21.125-17.73 25.565a12.313 12.313 0 0 1-7.645 2.71Z" class="shade90"/>
    <path fill="#ecc6cd" d="M163.745 104a60.292 60.292 0 0 1 6.475 4.15c2.105-3.47 3.545-6 3.545-6a18.705 18.705 0 0 0-6.19-4.245 52.397 52.397 0 0 0-7.255-2.3l-3.225 5.07c2.225 1.095 4.47 2.145 6.65 3.325Z" class="shade40"/>
    <path fill="#14151f" d="M125.55 75.415c.21 0 .38-.22.38-.49s-.17-.49-.38-.49-.38.22-.38.49.17.49.38.49Z" class="shade90"/>
    <path fill="#fff" d="M127.825 80.575c-.349.112-.72.136-1.08.07a6.412 6.412 0 0 1-1.895-.915c.277.546.628 1.05 1.045 1.5.455.36 1.81.32 1.81.32l.12-.975Z" class="shade0"/>
    <path fill="#14151f" d="M127.55 81.81c-.4 0-1.385-.035-1.81-.375a6.34 6.34 0 0 1-1.11-1.59.253.253 0 0 1 .055-.305.264.264 0 0 1 .31 0c.539.392 1.141.69 1.78.88.318.055.645.036.955-.055a.255.255 0 0 1 .245.03.248.248 0 0 1 .095.23l-.12 1a.249.249 0 0 1-.24.22l-.16-.035Zm-2-1.355c.139.218.307.417.5.59.447.2.936.291 1.425.265l.055-.41a3.245 3.245 0 0 1-.825 0 3.705 3.705 0 0 1-1.135-.445h-.02Zm-2.93-6.34c.725-1.355 1.645-7.25.245-8.365-1.4-1.115-5.61-1.25-5.61-1.25s-5.895-3.095-10.105 2.85c-4.21 5.945-5.725 18.35-9 23.785-2.34 3.905-12.945 18.385-18.74 26.245l.3.31c.035.04.28.275.41.41.205.175.62.555.6.535.5.435 1 .85 1.5 1.245.5.395 1.15.84 1.745 1.23.325.215.66.415 1 .62l.135.08a46.423 46.423 0 0 0 3.635 1.725c2.59 1.09 5.265 1.975 7.92 2.9.312.11.61.254.89.43 8.215-3.255 17.29-8.28 21.11-16.73 7.18-15.88 1.865-34.615 1.865-34.615a2.612 2.612 0 0 0 2.1-1.405Z" class="shade90"/>
    <path fill="#14151f" d="m93.835 128.65-.055-.5a32.46 32.46 0 0 0 21.865-11.73c4.54-5.5 7.345-12.46 7.5-18.63.285-11.28-3.67-23.19-3.71-23.31l.475-.16c.04.12 4.025 12.115 3.735 23.5-.16 6.275-3 13.35-7.615 18.93a32.937 32.937 0 0 1-22.195 11.9ZM77 116.255l-.35-.36c.22-.21 21.87-21.57 24.295-35.685 1.29-7.5 4.62-11.295 7.185-13.155a11.709 11.709 0 0 1 5.37-2.275l.045.5c-.095 0-9.7 1.035-12.1 15C99 94.57 77.235 116.04 77 116.255Z" class="shade90"/>
    <path fill="#ecc6cd" d="M117.95 77.74c2.865 2.925.5 5.3-2.435 2.435-2.925 2.865-5.3.5-2.435-2.435-2.865-2.925-.5-5.3 2.435-2.435 2.925-2.865 5.3-.49 2.435 2.435Z" class="shade40"/>
    <path fill="#fff" d="M115.755 78.8a1.255 1.255 0 1 0 0-2.51 1.255 1.255 0 0 0 0 2.51Zm54.7 25.895a1.38 1.38 0 1 0 0-2.76 1.38 1.38 0 0 0 0 2.76Z" class="shade0"/>
    <path fill="#14151f" d="M170.455 104.94a1.633 1.633 0 0 1-1.506-1.007 1.636 1.636 0 0 1 .355-1.777 1.63 1.63 0 1 1 1.151 2.784Zm0-2.755a1.126 1.126 0 0 0-1.044.698 1.13 1.13 0 1 0 1.044-.698Z" class="shade90"/>
    <path fill="#fff" d="M132.025 238.115h-57.72v1.16h57.72v-1.16Z" class="shade0"/>
  </g>
</svg>
