<svg width="2361" height="2361" viewBox="0 0 2361 2361" fill="none" xmlns="http://www.w3.org/2000/svg">
<g clip-path="url(#clip0_2512_37)">
<path d="M1541.11 1180.53C1541.11 1379.67 1379.67 1541.11 1180.53 1541.11C981.382 1541.11 819.942 1379.67 819.942 1180.53C819.942 981.382 981.382 819.942 1180.53 819.942C1379.67 819.942 1541.11 981.382 1541.11 1180.53Z" fill="#F5F5F5" stroke="#14151E" stroke-width="15.8848"/>
<path d="M1401.44 1243.82L1402.28 1240.4L1226.64 1194.79C1224.11 1194.14 1224.56 1190.42 1227.17 1190.39L1408.63 1187.85V1184.33L1227.17 1181.79C1224.56 1181.75 1224.11 1178.04 1226.64 1177.38L1402.28 1131.77L1401.44 1128.35L1224.54 1169.39C1221.99 1169.98 1220.67 1166.48 1222.96 1165.24L1382.58 1078.62L1380.94 1075.5L1219.19 1157.83C1216.86 1159.01 1214.73 1155.94 1216.66 1154.18L1350.82 1031.93L1348.48 1029.3L1211.07 1147.8C1209.09 1149.5 1206.29 1147.02 1207.75 1144.85L1308.9 994.214L1306.01 992.212L1200.76 1140.15C1199.25 1142.27 1195.94 1140.53 1196.83 1138.08L1259.02 967.502L1255.73 966.254L1189.11 1135.19C1188.15 1137.62 1184.52 1136.72 1184.8 1134.13L1204.09 953.562L1200.6 953.141L1176.43 1132.92C1176.09 1135.51 1172.34 1135.51 1171.99 1132.92L1147.83 953.141L1144.34 953.562L1163.63 1134.13C1163.91 1136.72 1160.28 1137.62 1159.32 1135.19L1092.7 966.254L1089.41 967.502L1151.6 1138.08C1152.49 1140.53 1149.18 1142.27 1147.67 1140.15L1042.42 992.212L1039.53 994.214L1140.68 1144.85C1142.14 1147.02 1139.34 1149.5 1137.36 1147.8L999.948 1029.3L997.613 1031.93L1131.77 1154.18C1133.7 1155.94 1131.57 1159.01 1129.24 1157.83L967.486 1075.5L965.848 1078.62L1125.47 1165.24C1127.76 1166.48 1126.44 1169.98 1123.89 1169.39L946.986 1128.35L946.146 1131.77L1121.79 1177.38C1124.32 1178.04 1123.87 1181.75 1121.26 1181.79L939.802 1184.33V1187.85L1121.26 1190.39C1123.87 1190.42 1124.32 1194.14 1121.79 1194.79L946.146 1240.4L946.986 1243.82L1123.89 1202.78C1126.44 1202.19 1127.76 1205.69 1125.47 1206.94L965.848 1293.55L967.486 1296.67L1129.24 1214.35C1131.57 1213.16 1133.7 1216.24 1131.77 1218L997.613 1340.24L999.948 1342.88L1137.36 1224.38C1139.34 1222.67 1142.14 1225.16 1140.68 1227.32L1039.53 1377.96L1042.42 1379.96L1147.67 1232.03C1149.18 1229.9 1152.49 1231.64 1151.6 1234.1L1089.41 1404.66L1092.7 1405.91L1159.32 1236.98C1160.28 1234.56 1163.91 1235.45 1163.63 1238.04L1144.34 1418.61L1147.83 1419.03L1171.99 1239.26C1172.34 1236.67 1176.09 1236.67 1176.43 1239.26L1200.6 1419.03L1204.09 1418.61L1184.8 1238.05C1184.52 1235.45 1188.15 1234.56 1189.11 1236.99L1255.73 1405.92L1259.02 1404.67L1196.83 1234.09C1195.94 1231.64 1199.25 1229.9 1200.76 1232.03L1306.01 1379.96L1308.9 1377.96L1207.75 1227.32C1206.29 1225.16 1209.09 1222.67 1211.07 1224.38L1348.48 1342.88L1350.82 1340.24L1216.66 1218C1214.73 1216.24 1216.86 1213.16 1219.19 1214.35L1380.94 1296.67L1382.58 1293.55L1222.96 1206.94C1220.67 1205.69 1221.99 1202.19 1224.54 1202.78L1401.44 1243.82Z" fill="#C1D2D8" stroke="#14151E" stroke-width="3.52"/>
</g>
<defs>
<clipPath id="clip0_2512_37">
<rect width="737.055" height="737.055" fill="white" transform="translate(812 812)"/>
</clipPath>
</defs>
</svg>
