<svg width="2361" height="2361" viewBox="0 0 2361 2361" fill="none" xmlns="http://www.w3.org/2000/svg">
<g clip-path="url(#clip0_2512_16)">
<path d="M1517.48 1180.49C1517.48 1366.61 1366.61 1517.48 1180.49 1517.48C994.383 1517.48 843.51 1366.61 843.51 1180.49C843.51 994.383 994.383 843.51 1180.49 843.51C1366.61 843.51 1517.48 994.383 1517.48 1180.49Z" fill="#F5F5F5" stroke="#14151E" stroke-width="17.0194"/>
<path d="M1325.68 1089.84L1199.75 963.91C1189.11 953.275 1171.87 953.275 1161.24 963.91L1035.31 1089.84C1024.67 1100.48 1024.67 1117.72 1035.31 1128.35L1087.45 1180.49L1035.31 1232.64C1024.67 1243.27 1024.67 1260.51 1035.31 1271.15L1161.24 1397.08C1171.87 1407.71 1189.11 1407.71 1199.75 1397.08L1325.68 1271.15C1336.32 1260.51 1336.32 1243.27 1325.68 1232.64L1273.54 1180.49L1325.68 1128.35C1336.32 1117.72 1336.32 1100.48 1325.68 1089.84Z" fill="#C6BEF8" stroke="#14151E" stroke-width="17.0194"/>
</g>
<defs>
<clipPath id="clip0_2512_16">
<rect width="690.99" height="690.99" fill="white" transform="translate(835 835)"/>
</clipPath>
</defs>
</svg>
