<svg width="2361" height="2361" viewBox="0 0 2361 2361" fill="none" xmlns="http://www.w3.org/2000/svg">
<g clip-path="url(#clip0_2512_36)">
<path d="M1541.11 1180.53C1541.11 1379.67 1379.67 1541.11 1180.53 1541.11C981.382 1541.11 819.942 1379.67 819.942 1180.53C819.942 981.382 981.382 819.942 1180.53 819.942C1379.67 819.942 1541.11 981.382 1541.11 1180.53Z" fill="#F5F5F5" stroke="#14151E" stroke-width="15.8848"/>
<path d="M1186.28 954.445L1195.49 1078.61C1196.54 1092.76 1214.56 1098.06 1223.1 1086.73L1298.05 987.269C1302.35 981.568 1311.13 987.22 1307.72 993.493L1248.3 1102.84C1241.52 1115.31 1253.82 1129.53 1267.14 1124.6L1383.92 1081.44C1390.62 1078.97 1394.95 1088.47 1388.69 1091.91L1279.6 1151.76C1267.15 1158.59 1269.83 1177.2 1283.7 1180.25L1405.24 1206.98C1412.21 1208.52 1410.73 1218.86 1403.6 1218.37L1279.43 1209.82C1265.26 1208.84 1257.45 1225.95 1267.48 1236.01L1355.3 1324.16C1360.33 1329.22 1353.5 1337.12 1347.77 1332.86L1247.84 1258.55C1236.45 1250.08 1220.65 1260.25 1223.64 1274.12L1249.82 1395.82C1251.32 1402.8 1241.3 1405.74 1238.79 1399.06L1194.92 1282.51C1189.92 1269.23 1171.14 1269.23 1166.14 1282.51L1122.27 1399.06C1119.76 1405.74 1109.74 1402.8 1111.24 1395.82L1137.42 1274.12C1140.4 1260.25 1124.6 1250.08 1113.21 1258.55L1013.29 1332.86C1007.56 1337.12 1000.72 1329.22 1005.76 1324.16L1093.58 1236.01C1103.6 1225.95 1095.8 1208.84 1081.63 1209.82L957.452 1218.37C950.329 1218.86 948.844 1208.52 955.818 1206.98L1077.36 1180.25C1091.23 1177.2 1093.9 1158.59 1081.45 1151.76L972.361 1091.91C966.102 1088.47 970.436 1078.97 977.133 1081.44L1093.92 1124.6C1107.23 1129.53 1119.53 1115.31 1112.76 1102.84L1053.33 993.493C1049.92 987.22 1058.71 981.568 1063 987.27L1137.95 1086.73C1146.49 1098.06 1164.52 1092.76 1165.57 1078.61L1174.78 954.445C1175.31 947.326 1185.75 947.326 1186.28 954.445Z" fill="#C6BEF8" stroke="#14151E" stroke-width="9.60959"/>
</g>
<defs>
<clipPath id="clip0_2512_36">
<rect width="737.055" height="737.055" fill="white" transform="translate(812 812)"/>
</clipPath>
</defs>
</svg>
