<svg width="2361" height="2361" viewBox="0 0 2361 2361" fill="none" xmlns="http://www.w3.org/2000/svg">
<g clip-path="url(#clip0_2512_34)">
<path d="M1541.11 1180.53C1541.11 1379.67 1379.67 1541.11 1180.53 1541.11C981.382 1541.11 819.942 1379.67 819.942 1180.53C819.942 981.382 981.382 819.942 1180.53 819.942C1379.67 819.942 1541.11 981.382 1541.11 1180.53Z" fill="#F5F5F5" stroke="#14151E" stroke-width="15.8848"/>
<path d="M1356.67 1101.23L1353.07 1109.04L1361.14 1112.01C1405.99 1128.51 1425.67 1155.77 1425.67 1180.53C1425.67 1205.29 1405.99 1232.54 1361.14 1249.05L1353.07 1252.02L1356.67 1259.83C1376.65 1303.19 1371.28 1336.37 1353.78 1353.88C1336.28 1371.38 1303.12 1376.75 1259.76 1356.74L1251.95 1353.14L1248.98 1361.21C1232.46 1406.02 1205.21 1425.69 1180.46 1425.69C1155.7 1425.69 1128.45 1406.02 1111.93 1361.21L1108.96 1353.15L1101.16 1356.74C1057.79 1376.72 1024.62 1371.36 1007.11 1353.85C989.603 1336.35 984.238 1303.2 1004.24 1259.83L1007.84 1252.02L999.774 1249.05C954.964 1232.54 935.299 1205.29 935.299 1180.53C935.299 1155.77 954.964 1128.52 999.774 1112.01L1007.84 1109.03L1004.24 1101.23C984.266 1057.86 989.629 1024.69 1007.13 1007.18C1024.63 989.675 1057.79 984.31 1101.15 1004.31L1108.96 1007.91L1111.93 999.846C1128.45 955.036 1155.7 935.371 1180.46 935.371C1205.21 935.371 1232.46 955.036 1248.98 999.846L1251.95 1007.91L1259.75 1004.31C1303.12 984.338 1336.3 989.701 1353.8 1007.2C1371.31 1024.7 1376.67 1057.86 1356.67 1101.23Z" fill="#F6E5CC" stroke="#14151E" stroke-width="15.8848"/>
</g>
<defs>
<clipPath id="clip0_2512_34">
<rect width="737.055" height="737.055" fill="white" transform="translate(812 812)"/>
</clipPath>
</defs>
</svg>
