<svg width="2361" height="2361" viewBox="0 0 2361 2361" fill="none" xmlns="http://www.w3.org/2000/svg">
<g clip-path="url(#clip0_2512_35)">
<path d="M1542.7 1180.53C1542.7 1380.55 1380.55 1542.7 1180.53 1542.7C980.505 1542.7 818.354 1380.55 818.354 1180.53C818.354 980.505 980.505 818.354 1180.53 818.354C1380.55 818.354 1542.7 980.505 1542.7 1180.53Z" fill="#F5F5F5" stroke="#14151E" stroke-width="12.7079"/>
<path d="M1393.85 1183.28L1308.65 1199.09C1297.8 1201.1 1294.56 1215.08 1303.41 1221.66L1373.41 1273.69C1374.04 1274.16 1374.24 1274.61 1374.31 1274.97C1374.4 1275.39 1374.34 1275.93 1374.08 1276.46C1373.81 1277 1373.42 1277.37 1373.03 1277.56C1372.71 1277.72 1372.22 1277.84 1371.46 1277.62L1288.84 1254.08C1278.15 1251.03 1269.01 1262.28 1274.19 1272.12L1315.07 1349.81C1315.43 1350.51 1315.42 1351.01 1315.33 1351.36C1315.22 1351.78 1314.93 1352.24 1314.46 1352.61C1313.99 1352.97 1313.48 1353.14 1313.04 1353.14C1312.68 1353.14 1312.19 1353.04 1311.6 1352.51L1247.44 1294.98C1239.09 1287.5 1225.87 1293.77 1226.37 1304.96L1230.28 1392.26C1230.31 1393.06 1230.08 1393.51 1229.85 1393.78C1229.57 1394.12 1229.12 1394.41 1228.53 1394.54C1227.95 1394.67 1227.41 1394.6 1227.02 1394.41C1226.69 1394.26 1226.29 1393.96 1225.99 1393.22L1192.76 1313.16C1188.45 1302.77 1173.72 1302.77 1169.41 1313.16L1136.18 1393.22C1135.87 1393.96 1135.48 1394.26 1135.15 1394.41C1134.76 1394.6 1134.22 1394.67 1133.64 1394.54C1133.05 1394.41 1132.6 1394.12 1132.32 1393.78C1132.09 1393.51 1131.86 1393.06 1131.89 1392.26L1135.8 1304.96C1136.3 1293.77 1123.07 1287.5 1114.73 1294.98L1050.57 1352.51C1049.97 1353.04 1049.49 1353.14 1049.12 1353.14C1048.69 1353.14 1048.17 1352.97 1047.71 1352.61C1047.24 1352.24 1046.95 1351.78 1046.84 1351.36C1046.75 1351.01 1046.73 1350.51 1047.1 1349.81L1087.98 1272.12C1093.15 1262.28 1084.02 1251.03 1073.32 1254.08L990.703 1277.62C989.943 1277.84 989.46 1277.72 989.133 1277.56C988.746 1277.37 988.354 1277 988.092 1276.46C987.829 1275.93 987.772 1275.39 987.856 1274.97C987.927 1274.61 988.127 1274.16 988.761 1273.69L1058.75 1221.66C1067.61 1215.08 1064.37 1201.1 1053.52 1199.09L968.314 1183.28C967.541 1183.13 967.16 1182.81 966.939 1182.52C966.676 1182.18 966.491 1181.68 966.491 1181.08C966.491 1180.49 966.676 1179.99 966.939 1179.64C967.16 1179.35 967.541 1179.03 968.314 1178.89L1053.52 1163.08C1064.37 1161.07 1067.61 1147.09 1058.75 1140.51L988.761 1088.48C988.127 1088.01 987.927 1087.56 987.856 1087.2C987.772 1086.77 987.829 1086.24 988.092 1085.71C988.354 1085.17 988.746 1084.8 989.133 1084.61C989.46 1084.45 989.943 1084.33 990.703 1084.55L1073.32 1108.09C1084.02 1111.14 1093.15 1099.89 1087.98 1090.05L1047.1 1012.36C1046.73 1011.66 1046.75 1011.16 1046.84 1010.81C1046.95 1010.39 1047.24 1009.93 1047.71 1009.56C1048.17 1009.2 1048.69 1009.03 1049.12 1009.03C1049.49 1009.03 1049.97 1009.13 1050.57 1009.66L1114.73 1067.19C1123.07 1074.67 1136.3 1068.4 1135.8 1057.21L1131.89 969.904C1131.86 969.106 1132.09 968.663 1132.32 968.384C1132.6 968.052 1133.05 967.757 1133.64 967.627C1134.22 967.497 1134.76 967.571 1135.15 967.754C1135.48 967.908 1135.87 968.212 1136.18 968.949L1169.41 1049.01C1173.72 1059.4 1188.45 1059.4 1192.76 1049.01L1225.99 968.949C1226.29 968.212 1226.69 967.908 1227.02 967.754C1227.41 967.571 1227.95 967.497 1228.53 967.627C1229.12 967.757 1229.57 968.052 1229.85 968.384C1230.08 968.663 1230.31 969.106 1230.28 969.904L1226.37 1057.21C1225.87 1068.4 1239.09 1074.67 1247.44 1067.19L1311.6 1009.66C1312.19 1009.13 1312.68 1009.03 1313.04 1009.03C1313.48 1009.03 1313.99 1009.2 1314.46 1009.56C1314.93 1009.93 1315.22 1010.39 1315.33 1010.81C1315.42 1011.16 1315.43 1011.66 1315.07 1012.36L1274.19 1090.05C1269.01 1099.89 1278.15 1111.14 1288.84 1108.09L1371.46 1084.55C1372.22 1084.33 1372.71 1084.45 1373.03 1084.61C1373.42 1084.8 1373.81 1085.17 1374.08 1085.71C1374.34 1086.24 1374.4 1086.77 1374.31 1087.2C1374.24 1087.56 1374.04 1088.01 1373.41 1088.48L1303.41 1140.51C1294.56 1147.09 1297.8 1161.07 1308.65 1163.08L1393.85 1178.89C1394.63 1179.03 1395.01 1179.35 1395.23 1179.64C1395.49 1179.99 1395.68 1180.49 1395.68 1181.08C1395.68 1181.68 1395.49 1182.18 1395.23 1182.52C1395.01 1182.81 1394.63 1183.13 1393.85 1183.28Z" fill="#ECC6CD" stroke="#14151E" stroke-width="10.4102"/>
</g>
<defs>
<clipPath id="clip0_2512_35">
<rect width="737.055" height="737.055" fill="white" transform="translate(812 812)"/>
</clipPath>
</defs>
</svg>
