<svg width="2361" height="2361" viewBox="0 0 2361 2361" fill="none" xmlns="http://www.w3.org/2000/svg">
<g clip-path="url(#clip0_2512_25)">
<path d="M1519.51 1180.49C1519.51 1367.73 1367.73 1519.51 1180.49 1519.51C993.263 1519.51 841.482 1367.73 841.482 1180.49C841.482 993.263 993.263 841.482 1180.49 841.482C1367.73 841.482 1519.51 993.263 1519.51 1180.49Z" fill="#F5F5F5" stroke="#14151E" stroke-width="12.9642"/>
<path d="M1396.57 1126.43L1396.56 1126.86L1396.59 1127.27L1396.59 1127.27L1396.59 1127.28C1396.59 1127.29 1396.6 1127.33 1396.6 1127.38C1396.61 1127.48 1396.62 1127.64 1396.63 1127.88C1396.65 1128.35 1396.68 1129.09 1396.69 1130.08C1396.71 1132.07 1396.65 1135.06 1396.34 1138.93C1395.71 1146.66 1394.06 1157.91 1389.91 1171.64C1381.64 1199.05 1363.4 1236.55 1323.32 1275.9L1323.29 1275.92L1323.27 1275.95C1287.06 1312.19 1246.59 1346.77 1180.55 1400.52C1114.5 1346.79 1074.03 1312.22 1037.82 1275.95L1037.8 1275.92L1037.77 1275.9C997.659 1236.55 979.401 1199.05 971.12 1171.63C966.974 1157.91 965.316 1146.66 964.688 1138.93C964.374 1135.06 964.318 1132.07 964.336 1130.08C964.345 1129.09 964.373 1128.35 964.397 1127.88C964.409 1127.64 964.42 1127.47 964.427 1127.38C964.431 1127.33 964.433 1127.29 964.434 1127.28L964.435 1127.27L964.435 1127.27L964.482 1126.75L964.441 1126.21C964.346 1124.97 964.343 1123.69 964.343 1122.1C964.343 1063.77 1013.66 1013.02 1074.47 1013.02C1118.74 1013.02 1157.19 1041.59 1174.67 1078.26L1180.52 1090.54L1186.37 1078.26C1203.85 1041.59 1242.29 1013.02 1286.55 1013.02C1347.37 1013.02 1396.68 1063.77 1396.68 1122.1C1396.68 1123.51 1396.64 1124.93 1396.57 1126.43Z" fill="#C1D2D8" stroke="#14151E" stroke-width="12.9642"/>
</g>
<defs>
<clipPath id="clip0_2512_25">
<rect width="690.99" height="690.99" fill="white" transform="translate(835 835)"/>
</clipPath>
</defs>
</svg>
